<svg id="Layer_1" data-name="Layer 1" xmlns="http://www.w3.org/2000/svg" viewBox="0 0 111.25 86.37"><rect x="27.58" y="-13.18" width="55.64" height="113.1" rx="27.82" transform="translate(68.62 -25.73) rotate(62.78)" style="fill:none;stroke:#000;stroke-miterlimit:10;stroke-width:2.0999999999999996px"/><polygon points="46.81 41.06 49.09 31.1 37.39 37.12 46.81 41.06" style="fill:#ff7300;stroke:#000;stroke-linejoin:round;stroke-width:2.0999999999999996px"/><polyline points="35.12 47.07 62.34 56.86 70.2 29.03" style="fill:#ff7300;stroke:#000;stroke-linejoin:round;stroke-width:2.0999999999999996px"/><polyline points="46.81 41.06 62.34 56.86 58.51 35.04" style="fill:#ff7300;stroke:#000;stroke-linejoin:round;stroke-width:2.0999999999999996px"/><polygon points="49.09 31.1 46.81 41.06 58.51 35.04 49.09 31.1" style="fill:#ff7300;stroke:#000;stroke-linejoin:round;stroke-width:2.0999999999999996px"/><polygon points="37.39 37.12 35.12 47.07 46.81 41.06 37.39 37.12" style="fill:#ff7300;stroke:#000;stroke-linejoin:round;stroke-width:2.0999999999999996px"/><polygon points="60.78 25.09 58.51 35.04 70.2 29.03 60.78 25.09" style="fill:#ff7300;stroke:#000;stroke-linejoin:round;stroke-width:2.0999999999999996px"/><polygon points="58.51 35.04 60.78 25.09 49.09 31.1 58.51 35.04" style="fill:#ff7300;stroke:#000;stroke-linejoin:round;stroke-width:2.0999999999999996px"/></svg>