<svg xmlns="http://www.w3.org/2000/svg" viewBox="0 0 115.3 57.7"><g id="Layer_2" data-name="Layer 2"><g id="Layer_1-2" data-name="Layer 1"><path d="M42,1.05s-.9,17.3,10.3,25,19.5,8.6,20.9,30.6h14.7s22.3-.1,26.2-26c0,0,1.4-25.4-25-29.6Z" style="fill:#001eff"/><path d="M1.05,28.85h0A27.83,27.83,0,0,1,29,1.05h57.5a27.8,27.8,0,0,1,27.8,27.8h0a27.87,27.87,0,0,1-27.8,27.8H29a27.83,27.83,0,0,1-27.9-27.8Z" style="fill:none;stroke:#000;stroke-miterlimit:10;stroke-width:2.0999999046325684px"/><path d="M73.15,56.15s.9-21.4-15.7-27.3h0C41,22.85,42,1.45,42,1.45" style="fill:none;stroke:#000;stroke-miterlimit:10;stroke-width:2.0999999046325684px"/><circle cx="28.65" cy="39.55" r="4.5" style="fill:none;stroke:#000;stroke-miterlimit:10;stroke-width:2.0999999046325684px"/><circle cx="81.05" cy="16.95" r="4.5" style="fill:#fff;stroke:#000;stroke-miterlimit:10;stroke-width:2.0999999046325684px"/></g></g></svg>