<svg id="Layer_1" data-name="Layer 1" xmlns="http://www.w3.org/2000/svg" viewBox="0 0 97.87 97.25"><path d="M48.51,29.84a17.82,17.82,0,0,0-2.48,14L42.86,47S35,43.24,27.94,50.34l2.21,1s6.27,6.54,9.69,7.05c0,0,4,8.7,8.67,11.31,0,0,5.07-5.24,3.4-12.51l2.76-3.55,2-.62,7-.35,3.84-1.85,1.38-1.09L62.75,44,59,41.88l-1.63-.45s-1.94-7.4-5.75-9S48.51,29.84,48.51,29.84Z" style="fill:#ff7300"/><path d="M51.7,56.37a14.26,14.26,0,0,1-3.59,14.15L27.28,91.35a14.27,14.27,0,0,1-20.18,0h0a14.26,14.26,0,0,1,0-20.17L27.94,50.34a14.25,14.25,0,0,1,15-3.31" style="fill:none;stroke:#000;stroke-miterlimit:10;stroke-width:2.0999999999999996px"/><path d="M46.06,43.92a14.28,14.28,0,0,1,3.31-15L70.2,8.08a14.26,14.26,0,0,1,20.17,0h0a14.26,14.26,0,0,1,0,20.17L69.54,49.08a14.28,14.28,0,0,1-14.15,3.6" style="fill:none;stroke:#000;stroke-miterlimit:10;stroke-width:2.0999999999999996px"/><rect x="50.56" y="36.8" width="28.53" height="57.99" rx="14.26" transform="translate(-27.54 65.11) rotate(-45)" style="fill:none;stroke:#000;stroke-miterlimit:10;stroke-width:2.0999999999999996px"/><rect x="18.93" y="5.17" width="28.53" height="57.99" rx="14.26" transform="translate(-14.44 33.48) rotate(-45)" style="fill:none;stroke:#000;stroke-miterlimit:10;stroke-width:2.0999999999999996px"/></svg>