<?xml version="1.0" encoding="utf-8"?>
<!-- Generator: Adobe Illustrator 26.5.0, SVG Export Plug-In . SVG Version: 6.00 Build 0)  -->
<svg version="1.1" id="Layer_1" xmlns="http://www.w3.org/2000/svg" xmlns:xlink="http://www.w3.org/1999/xlink" x="0px" y="0px"
	 viewBox="0 0 25 25" enable-background="new 0 0 25 25" xml:space="preserve">
<g>
	<g>
		<path fill-rule="evenodd" clip-rule="evenodd" fill="#FF7BAC" d="M2.5,13.2c-2.7-2.7-2.7-7,0-9.7c1.3-1.3,3-2,4.8-2
			c1.8,0,3.5,0.7,4.8,2l0.4,0.4l0.4-0.4c1.3-1.3,3-2,4.8-2c1.8,0,3.5,0.7,4.8,2c2.7,2.7,2.7,7,0,9.7l-10,10.1L2.5,13.2z"/>
		<path fill="#CC628A" d="M17.7,2c1.7,0,3.3,0.7,4.5,1.9c2.5,2.5,2.5,6.5,0,9l-9.7,9.7l-9.7-9.7c-2.5-2.5-2.5-6.5,0-9
			C4,2.7,5.6,2,7.3,2c1.7,0,3.3,0.7,4.5,1.9l0.7,0.7l0.7-0.7C14.4,2.7,16,2,17.7,2 M17.7,1c-1.9,0-3.8,0.7-5.2,2.2
			C11.1,1.7,9.2,1,7.3,1C5.4,1,3.6,1.7,2.1,3.2c-2.9,2.9-2.9,7.5,0,10.4L12.5,24l10.4-10.4c2.9-2.9,2.9-7.5,0-10.4
			C21.4,1.7,19.6,1,17.7,1L17.7,1z"/>
	</g>
</g>
</svg>
