<svg xmlns="http://www.w3.org/2000/svg" viewBox="0 0 262.98 309.37"><g id="Layer_2" data-name="Layer 2"><g id="Layer_1-2" data-name="Layer 1"><path d="M27.56,61.23a6.11,6.11,0,0,1,5.6,5.88c.57,7,1.06,14.1,1.59,21.15q.89,11.82,1.8,23.65.89,11.52,1.8,23.05,1,12.72,2.06,25.43l1.77,21.85,2,25.08q.9,11,1.8,22,1,12.53,2,25.07c.51,6.33,1,12.67,1.56,19a17.17,17.17,0,0,0,16.56,15.09q53.81.06,107.6.05,13.14,0,26.27,0a22,22,0,0,0,4.64-.51c4.64-1,7.19-4,8.09-8.54A111.21,111.21,0,0,0,214,267.6c.72-8.4,1.39-16.8,2.06-25.2s1.35-16.87,2-25.31l2.07-25.91q.88-11.12,1.78-22.21t1.82-22.33l2-24.84c.69-8.48,1.39-17,2.05-25.44.62-8,1.2-15.92,1.79-23.89.13-1.79.19-3.59.37-5.37a6.14,6.14,0,0,1,5.62-5.87q7.33,0,14.68.05c.4,0,.88-.24,1.2.24-.09,1-.19,2-.28,3q-1,12.28-2,24.59l-2.07,25.54q-1,12.65-2,25.31-1,12.83-2,25.66-.88,11-1.78,22-1,12.66-2,25.31t-2,25.19c-.69,8.55-1.34,17.11-2.1,25.66-.52,5.92-.8,11.87-1.65,17.76-2.08,14.39-12.32,24.81-26.69,27.24a28.05,28.05,0,0,0-4.27.65h-.72c-.14-.37-.47-.24-.72-.24l-16.06,0h-36.5l-1.2,0h-51c-.43,0-.87,0-1.31,0q-16.14,0-32.29-.05c-.44,0-1-.25-1.31.25h-1c-.17-.44-.55-.22-.83-.25a35.58,35.58,0,0,1-13.51-3.77C35.89,300,30.81,291.07,29.54,280c-1.1-9.63-1.67-19.33-2.46-29-.68-8.39-1.33-16.79-2-25.19q-1.14-14.09-2.3-28.17Q21.53,182,20.29,166.44q-1.38-17-2.78-34C16.67,122,15.88,111.64,15,101.26c-1.09-13-2.23-26-3.34-39-.14-.85.26-1,1.05-1C17.68,61.28,22.62,61.24,27.56,61.23Z" style="fill:#001eff"/><path d="M11.68,62.24h-.11l-.1,0c-.21-1,.19-1.24,1.2-1.23,5,.06,9.92,0,14.88,0a1.34,1.34,0,0,0,0,.2c-4.94,0-9.88.05-14.83,0C11.94,61.24,11.54,61.39,11.68,62.24Z" style="fill:#bdbdbd"/><path d="M251.63,61.51h-.2c-.32-.48-.8-.24-1.2-.24q-7.35,0-14.68-.05c0-.07,0-.13,0-.2,5.12,0,10.24,0,15.35,0C251.22,61,251.78,60.77,251.63,61.51Z" style="fill:#bfbfbf"/><path d="M172.35,237.28c.48-8.57,1-18,1.55-27.38.51-8.81,1.06-17.62,1.55-26.43.47-8.25.9-16.5,1.35-24.76q1-19.31,2.12-38.62.71-12.63,1.45-25.24A12.55,12.55,0,0,1,181.68,90c2.08-4.19,6.48-6.18,11.42-5.18A9.52,9.52,0,0,1,201,94c.19,5-.33,9.89-.6,14.83-.5,9.29-1.05,18.58-1.57,27.87q-1.07,18.84-2.11,37.67l-2.16,38.88q-1.08,19.43-2.17,38.86c-.3,5.19-.38,10.38-1,15.54-.4,3.41-1.6,6.5-4.69,8.36a10.73,10.73,0,0,1-11,.21c-3.48-1.79-4.88-5-4.8-8.76.13-5.95.5-11.89.79-17.83C171.91,245.78,172.11,242,172.35,237.28Z" style="fill:#001eff"/><path d="M89.64,263.27a24.42,24.42,0,0,1-.07,6.56c-1.18,5.26-6.31,8.49-11.89,7.53-4.93-.84-8.08-4.19-8.41-9.16-.71-10.72-1.36-21.44-2-32.16-.66-10.87-1.28-21.76-1.92-32.64q-.9-15.36-1.81-30.73c-.61-10.36-1.25-20.72-1.85-31.08s-1.21-20.81-1.77-31.21c-.28-5.18-.83-10.35-.69-15.56a13.55,13.55,0,0,1,.56-3.53c1.52-5,5.37-6.72,9.9-6.6,7.06.19,9.84,5.11,10.17,10.46.78,12.76,1.47,25.51,2.21,38.27q1.16,20.15,2.32,40.29,1.07,18.36,2.16,36.71,1.18,20,2.38,39.93C89.18,254.66,89.4,259,89.64,263.27Z" style="fill:#001eff"/><path d="M119.92,181V95.11c0-5.38,2.77-9.08,7.8-10.18,5.85-1.29,12.22,1.81,12.62,9,.08,1.32.16,2.63.16,4q0,26,0,51.94,0,28.48,0,57,0,29.44-.06,58.89c0,3-.27,6-2.42,8.43a11,11,0,0,1-11.45,2.78A9.4,9.4,0,0,1,120,268.2c0-.52,0-1,0-1.56Z" style="fill:#001eff"/><rect y="42.59" width="262.98" height="25.7" rx="8.71" style="fill:#001eff"/><path d="M160.92,54.73H159c0-.18-.19-.21-.35-.24-5.57-1.12-8.73-4.35-9.76-9.91-1.07-5.77-2.14-11.53-3.28-17.28a5.46,5.46,0,0,0-5.73-4.58H122.73a5.65,5.65,0,0,0-5.9,5q-1.36,8.38-2.72,16.78a11.48,11.48,0,0,1-9.22,9.93c-.35.07-.82-.16-1.06.31h-2.16c-.07-.24-.29-.21-.48-.25a11.24,11.24,0,0,1-9.49-8.66c-.07-.23,0-.59-.35-.68v-1a1.84,1.84,0,0,0,0-1.92v-1c.47-.27.34-.77.41-1.16Q93.13,32.07,94.42,24A28.33,28.33,0,0,1,120.61,0l21.14,0c12.62,1,22.58,9,25.72,21,1.32,5.08,2,10.32,3.05,15.48a40.35,40.35,0,0,0,1.2,5.76v2.16c-.46.27-.3.78-.39,1.17a11.31,11.31,0,0,1-9,8.82C161.87,54.52,161.3,54.24,160.92,54.73Z" style="fill:#001eff"/><path d="M91.35,42.26a1.84,1.84,0,0,1,0,1.92Z" style="fill:#656565"/></g></g></svg>