<svg id="Layer_1" data-name="Layer 1" xmlns="http://www.w3.org/2000/svg" viewBox="0 0 61.98 32.82"><rect x="17.14" y="-12.06" width="28.03" height="56.98" rx="14.02" transform="translate(47.58 -14.73) rotate(90)" style="fill:#ff7300;stroke:#ff7300;stroke-miterlimit:10;stroke-width:4.05px"/><path d="M21.12,16.53l6.64-6.64a4.54,4.54,0,0,1,6.43,0h0a4.54,4.54,0,0,1,0,6.43L27.55,23a4.56,4.56,0,0,1-6.43,0h0A4.55,4.55,0,0,1,21.12,16.53Z"/><path d="M41.19,16.53,34.55,9.89a4.54,4.54,0,0,0-6.43,0h0a4.54,4.54,0,0,0,0,6.43L34.76,23a4.56,4.56,0,0,0,6.43,0h0A4.55,4.55,0,0,0,41.19,16.53Z"/></svg>