<svg id="Layer_1" data-name="Layer 1" xmlns="http://www.w3.org/2000/svg" viewBox="0 0 93.25 37.47"><path d="M87.21,8.67a8.79,8.79,0,0,1,.34,2.42V23.61A6.37,6.37,0,0,1,81.18,30H10.64a8.62,8.62,0,0,1-3.1-.57A8.88,8.88,0,0,0,16,35.7H84a8.88,8.88,0,0,0,8.87-8.88V16.93A8.88,8.88,0,0,0,87.21,8.67Z" style="fill:#ff7300"/><path d="M10.64,2.33H78.79a8.76,8.76,0,0,1,8.76,8.76V23.61A6.37,6.37,0,0,1,81.18,30H10.64a8.76,8.76,0,0,1-8.76-8.76V11.09a8.76,8.76,0,0,1,8.76-8.76Z" style="stroke:#000;stroke-linecap:round;stroke-linejoin:round;stroke-width:3px"/><line x1="67.44" y1="11.46" x2="67.44" y2="20.45" style="fill:none;stroke:#fff;stroke-linecap:round;stroke-linejoin:round;stroke-width:3px"/><line x1="71.94" y1="15.95" x2="62.94" y2="15.95" style="fill:none;stroke:#fff;stroke-linecap:round;stroke-linejoin:round;stroke-width:3px"/><path d="M22.78,16.77H25a4.15,4.15,0,0,1-4.37,3.86c-2.14,0-4.42-1.24-4.42-4.67s2.28-4.69,4.42-4.69A4.17,4.17,0,0,1,25,15.15H22.78c-.24-1.23-.88-2.07-2.2-2.07-1.52,0-2.28,1.13-2.28,2.88s.76,2.86,2.28,2.86C21.9,18.82,22.54,18,22.78,16.77Z" style="fill:#fff"/><path d="M32.44,18.81H28.65l-.57,1.64H25.87l3.43-9h2.49l3.42,9H33ZM31.81,17l-1.26-3.62L29.29,17Z" style="fill:#fff"/><path d="M41.41,17.33H39v3.12H36.84v-9H41.5c2.06,0,3.17,1.09,3.17,2.93a1.77,1.77,0,0,1-1.48,2,1.64,1.64,0,0,1,1.41,1.84,14.19,14.19,0,0,0,.1,2.22H42.52a15.86,15.86,0,0,1-.1-1.94A1,1,0,0,0,41.41,17.33ZM39,15.52h2.49a1,1,0,0,0,1.09-1.12,1,1,0,0,0-1.09-1.11H39Z" style="fill:#fff"/><path d="M54.5,16c0,3.77-2.36,4.49-4.67,4.49H46.46v-9h3.37C52.14,11.47,54.5,12.17,54.5,16Zm-2.15,0c0-2.32-1.2-2.67-2.69-2.67H48.58v5.34h1.08C51.15,18.63,52.35,18.27,52.35,16Z" style="fill:#fff"/></svg>