<svg id="Layer_1" data-name="Layer 1" xmlns="http://www.w3.org/2000/svg" viewBox="0 0 64.16 34.19"><rect x="17.47" y="-12.45" width="29.07" height="59.09" rx="14.53" transform="translate(49.1 -14.91) rotate(90)" style="fill:#001eff;stroke:#001eff;stroke-linecap:round;stroke-linejoin:round;stroke-width:4.199999999999999px"/><path d="M41.49,14.93a2.05,2.05,0,0,0-.79-1.16L33.09,8.26a1.93,1.93,0,0,0-2.09,0Q27.19,11,23.39,13.81A2.09,2.09,0,0,0,22.71,16c.28.85.56,1.7.83,2.56.67,2.08,1.34,4.15,2,6.23a2.06,2.06,0,0,0,2,1.45h9.17a1,1,0,0,0,.5-.08,2.24,2.24,0,0,0,1.3-1.36q1.47-4.57,2.95-9.16A1.32,1.32,0,0,0,41.49,14.93Z" style="fill:#ff7300;stroke:#ff7300;stroke-linecap:round;stroke-linejoin:round;stroke-width:4.199999999999999px;fill-rule:evenodd"/></svg>