<svg xmlns="http://www.w3.org/2000/svg" viewBox="0 0 1025.27 512.7"><g id="Layer_2" data-name="Layer 2"><g id="Layer_1-2" data-name="Layer 1"><rect x="23.5" y="23.5" width="978.27" height="465.7" rx="232.85" style="fill:none;stroke:#020202;stroke-miterlimit:10;stroke-width:47px"/><path d="M511.27,125.5c24.16,0,46.18,5.78,63.7,23.66,23.43,23.91,25.86,59.76,5.28,86.12-6.21,8-13.69,15-20.83,22.19-5.16,5.2-10.68,10-16.12,15-10.67,9.65-16.54,21.52-17.07,36a58,58,0,0,1-.72,7c-.81,5.08-3.94,8-9.07,8.32-3.66.21-7.34.15-11,.08-7.09-.15-10.76-3.79-10.74-10.89.09-21.75,6.69-41,22.6-56.36,10.17-9.85,20.65-19.38,30.8-29.26,5.91-5.76,10.6-12.4,12.42-20.7,4.78-21.75-8.82-44.63-31.11-52.3-27.81-9.57-54.63,3.27-64.51,30.89-.62,1.72-1.13,3.48-1.74,5.21-3.18,9-12,13.53-20.77,10.78a16.38,16.38,0,0,1-10.69-20.4,75,75,0,0,1,16.49-30.5c14.85-16.47,34-23.27,55.58-24.71C506.26,125.35,508.77,125.5,511.27,125.5Z" style="stroke:#000;stroke-miterlimit:10;stroke-width:9px"/><path d="M511.2,351.34a18,18,0,1,1-18.05,17.91A17.72,17.72,0,0,1,511.2,351.34Z" style="stroke:#000;stroke-miterlimit:10;stroke-width:9px"/></g></g></svg>