<svg id="Layer_1" data-name="Layer 1" xmlns="http://www.w3.org/2000/svg" viewBox="0 0 61.98 32.82"><rect x="17.1" y="-12.02" width="28.03" height="56.98" rx="14.02" transform="translate(47.59 -14.64) rotate(90)" style="fill:#ddd;stroke:#ddd;stroke-linecap:round;stroke-linejoin:round;stroke-width:4.05px"/><path d="M21.08,16.58l6.64-6.65a4.56,4.56,0,0,1,6.43,0h0a4.55,4.55,0,0,1,0,6.44L27.51,23a4.54,4.54,0,0,1-6.43,0h0A4.54,4.54,0,0,1,21.08,16.58Z"/><path d="M41.15,16.58,34.51,9.93a4.56,4.56,0,0,0-6.43,0h0a4.55,4.55,0,0,0,0,6.44L34.72,23a4.54,4.54,0,0,0,6.43,0h0A4.54,4.54,0,0,0,41.15,16.58Z"/></svg>