<svg id="Layer_1" data-name="Layer 1" xmlns="http://www.w3.org/2000/svg" viewBox="0 0 93.25 36.84"><path d="M82,9.67a8,8,0,0,1,8,8V28.37a6.6,6.6,0,0,1-6.6,6.6H19.63a8,8,0,0,1-8-7" style="fill:none;stroke:#000;stroke-linecap:round;stroke-linejoin:round;stroke-width:2.94px"/><path d="M11.25,1.87H73.63a8,8,0,0,1,8,8h0V21.34a5.83,5.83,0,0,1-5.83,5.83H11.25a8,8,0,0,1-8-8V9.88a8,8,0,0,1,8-8Z" style="fill:none;stroke:#000;stroke-linecap:round;stroke-linejoin:round;stroke-width:2.94px"/><circle cx="43.69" cy="14.31" r="2"/><circle cx="52.77" cy="14.31" r="2"/><circle cx="62.48" cy="14.31" r="2"/><path d="M34.57,14.31s-3.6,4.43-8,4.43-7.84-4.43-7.84-4.43,3.47-4.42,7.84-4.42S34.57,14.31,34.57,14.31Z" style="fill:none;stroke:#000;stroke-linecap:round;stroke-linejoin:round;stroke-width:2.48640487670898px"/><circle cx="28.41" cy="14.31" r="2.62" style="fill:none;stroke:#000;stroke-linecap:round;stroke-linejoin:round;stroke-width:2.48640487670898px"/></svg>