<svg id="Layer_1" data-name="Layer 1" xmlns="http://www.w3.org/2000/svg" viewBox="0 0 93.25 36.84"><path d="M82,9.76a8,8,0,0,1,8,8V28.46a6.6,6.6,0,0,1-6.6,6.6H19.63a8,8,0,0,1-8-7" style="fill:none;stroke:#000;stroke-linecap:round;stroke-linejoin:round;stroke-width:2.94px"/><path d="M11.25,2H73.63a8,8,0,0,1,8,8h0V21.43a5.83,5.83,0,0,1-5.83,5.83H11.25a8,8,0,0,1-8-8V10a8,8,0,0,1,8-8Z" style="fill:none;stroke:#000;stroke-linecap:round;stroke-linejoin:round;stroke-width:2.94px"/><path d="M16.77,26.53V23.8a7.53,7.53,0,0,1,7.53-7.53h0a7.53,7.53,0,0,1,7.54,7.53v2.73" style="fill:none;stroke:#000;stroke-linecap:round;stroke-linejoin:round;stroke-width:3px"/><circle cx="24.3" cy="11.87" r="4.39" style="fill:none;stroke:#000;stroke-linecap:round;stroke-linejoin:round;stroke-width:3px"/><path d="M54.77,26.53V23.8a7.53,7.53,0,0,1,7.53-7.53h0a7.54,7.54,0,0,1,7.54,7.53v2.73" style="fill:none;stroke:#000;stroke-linecap:round;stroke-linejoin:round;stroke-width:3px"/><circle cx="62.3" cy="11.87" r="4.39" style="fill:none;stroke:#000;stroke-linecap:round;stroke-linejoin:round;stroke-width:3px"/><circle cx="35.81" cy="14.62" r="1.59"/><circle cx="43.03" cy="14.62" r="1.59"/><circle cx="50.73" cy="14.62" r="1.59"/></svg>