<svg id="Layer_1" data-name="Layer 1" xmlns="http://www.w3.org/2000/svg" viewBox="0 0 93.25 37.47"><path d="M82.73,9.81a8.15,8.15,0,0,1,3.39.73" style="fill:none;stroke:#000;stroke-linecap:round;stroke-linejoin:round;stroke-width:3px"/><path d="M90.29,14.86A8.12,8.12,0,0,1,90.91,18V28.89a6.74,6.74,0,0,1-3.64,6" style="fill:none;stroke:#000;stroke-linecap:round;stroke-linejoin:round;stroke-width:3px;stroke-dasharray:6.130946159362793,6.130946159362793,6.130946159362793,6.130946159362793"/><path d="M84.32,35.62H19.07A8.14,8.14,0,0,1,14.16,34" style="fill:none;stroke:#000;stroke-linecap:round;stroke-linejoin:round;stroke-width:3px;stroke-dasharray:6.130946159362793,6.130946159362793,6.130946159362793,6.130946159362793,6.130946159362793,6.130946159362793"/><path d="M12.11,31.73A8,8,0,0,1,11,28.45" style="fill:none;stroke:#000;stroke-linecap:round;stroke-linejoin:round;stroke-width:3px"/><path d="M76.4,27.66H10.52a8.17,8.17,0,0,1-8.17-8.17V10a8.17,8.17,0,0,1,8.17-8.17H74.18A8.17,8.17,0,0,1,82.35,10V21.71A6,6,0,0,1,76.4,27.66Z" style="fill:none;stroke:#000;stroke-linecap:round;stroke-linejoin:round;stroke-width:3px;stroke-dasharray:6.617557525634766,6.617557525634766,6.617557525634766,6.617557525634766,6.617557525634766,6.617557525634766"/></svg>