<svg xmlns="http://www.w3.org/2000/svg" viewBox="0 0 47.3 47.3"><g id="Layer_2" data-name="Layer 2"><g id="Layer_1-2" data-name="Layer 1"><path d="M18.59,33a4.43,4.43,0,0,0,1.56,1.42,6.67,6.67,0,0,0,3.17.69,5.7,5.7,0,0,0,5.08-2.59c.11-.17.21-.34.31-.51H18.07A5.19,5.19,0,0,0,18.59,33Z" style="fill:#b7b7b7"/><path d="M23.65,0A23.65,23.65,0,1,0,47.3,23.65,23.65,23.65,0,0,0,23.65,0Zm-13,26.65a2.15,2.15,0,0,1-1.88-1.12,2.12,2.12,0,0,1,.86-2.87h0l5-2.66L9.77,17.76a2.12,2.12,0,0,1,1.76-3.85l8.77,4a2.15,2.15,0,0,1,1.24,1.86,2.08,2.08,0,0,1-1.13,1.93l-8.76,4.69A2.07,2.07,0,0,1,10.65,26.65Zm23.11,3.58A12.43,12.43,0,0,1,32,34.73a10,10,0,0,1-3.21,3.18,10.39,10.39,0,0,1-5.49,1.46A10.74,10.74,0,0,1,18,38.09a8.59,8.59,0,0,1-3.05-2.91A9.71,9.71,0,0,1,13.46,31h.27a2.08,2.08,0,0,1-.27-1,2.11,2.11,0,0,1,2-2.17H31.65a2.1,2.1,0,0,1,2.12,2.1,1.72,1.72,0,0,1,0,.32Zm4.71-4.7a2.14,2.14,0,0,1-1.82,1.12,2.18,2.18,0,0,1-1-.25l-8.76-4.66a2.08,2.08,0,0,1-1.13-1.93A2.15,2.15,0,0,1,27,18l8.77-4a2.12,2.12,0,0,1,1.76,3.85L32.65,20l5,2.65a2.11,2.11,0,0,1,.85,2.87Z" style="fill:#b7b7b7"/></g></g></svg>