<svg xmlns="http://www.w3.org/2000/svg" viewBox="0 0 978.3 465.8"><g id="Layer_2" data-name="Layer 2"><g id="Layer_1-2" data-name="Layer 1"><path d="M232.9,0H745.5C874.1,0,978.3,104.3,978.3,232.9h0c0,128.6-104.3,232.9-232.8,232.9H232.9C104.3,465.8,0,361.5,0,232.9H0C0,104.3,104.3,0,232.9,0Z" style="fill:#020202"/><path d="M487.8,102c24.2,0,46.2,5.8,63.7,23.7,23.4,23.9,25.9,59.8,5.3,86.1-6.2,8-13.7,15-20.8,22.2-5.2,5.2-10.7,10-16.1,15-10.7,9.6-16.5,21.5-17.1,36a55.32,55.32,0,0,1-.7,7c-.8,5.1-3.9,8-9.1,8.3-3.7.2-7.3.1-11,.1-7.1-.1-10.8-3.8-10.7-10.9.1-21.8,6.7-41,22.6-56.4,10.2-9.9,20.7-19.4,30.8-29.3,5.9-5.8,10.6-12.4,12.4-20.7,4.8-21.8-8.8-44.6-31.1-52.3-27.8-9.6-54.6,3.3-64.5,30.9-.6,1.7-1.1,3.5-1.7,5.2-3.2,9-12,13.5-20.8,10.8a16.43,16.43,0,0,1-10.7-20.4,74.45,74.45,0,0,1,16.5-30.5c14.9-16.5,34-23.3,55.6-24.7A60.64,60.64,0,0,1,487.8,102Z" style="fill:#fff;stroke:#fff;stroke-miterlimit:10;stroke-width:9px"/><path d="M487.7,327.8a18,18,0,1,1-18.1,17.9h0a17.67,17.67,0,0,1,17.5-17.9Z" style="fill:#fff;stroke:#fff;stroke-miterlimit:10;stroke-width:9px"/></g></g></svg>