<svg xmlns="http://www.w3.org/2000/svg" viewBox="0 0 500.1 263.2"><g id="Layer_2" data-name="Layer 2"><g id="Layer_1-2" data-name="Layer 1"><path d="M368.6,263.2h-237A131.58,131.58,0,0,1,0,131.6H0A131.58,131.58,0,0,1,131.6,0H368.5A131.58,131.58,0,0,1,500.1,131.6h0A131.49,131.49,0,0,1,368.6,263.2Z"/><path d="M128.9,189.9V166.3c0-13.9,9.1-24.9,22.8-27.4a27,27,0,0,1,4.9-.4h47.5c13.8,0,24.8,9.1,27.3,22.6a24.18,24.18,0,0,1,.4,4.7v48.1a27.27,27.27,0,0,1-27.5,27.4H156.4a27.21,27.21,0,0,1-27.5-27.4ZM180.4,226H204c7.4,0,12.5-5.1,12.5-12.5V166.3c0-7.4-5.2-12.5-12.5-12.5H156.8c-7.4,0-12.5,5.1-12.5,12.5v47.2c0,7.4,5.1,12.5,12.5,12.5Z" style="fill:#fff"/><path d="M371.5,190v23.6c0,13.8-9.1,24.8-22.7,27.3a24.18,24.18,0,0,1-4.7.4H296A27.29,27.29,0,0,1,268.6,214V165.8a27.25,27.25,0,0,1,27.2-27.3c16.2-.1,32.3-.1,48.5,0a27.23,27.23,0,0,1,27.2,27.2Zm-15.3-.1V166.3c0-7.4-5.1-12.5-12.5-12.5H296.5c-7.4,0-12.5,5.1-12.5,12.5v47.2c0,7.4,5.2,12.5,12.5,12.5h47.2c7.4,0,12.5-5.1,12.5-12.5Z" style="fill:#fff"/><path d="M180.3,125.2H156.4a27.3,27.3,0,0,1-27.6-27.4V49.3a27.19,27.19,0,0,1,26.9-27c16.4-.1,32.8-.1,49.1,0a27.13,27.13,0,0,1,26.8,26.8q.15,24.6,0,49.2a27.2,27.2,0,0,1-26.8,26.8c-8,.2-16.2.1-24.5.1ZM216.5,74V50.3c0-7.4-5.1-12.5-12.5-12.5H156.8c-7.4,0-12.5,5.1-12.5,12.5V97.5c0,7.4,5.1,12.5,12.5,12.5H204c7.4,0,12.5-5.1,12.5-12.5Z" style="fill:#fff"/><path d="M320,125.2H296.3c-13.8,0-24.8-9.1-27.3-22.6a25.92,25.92,0,0,1-.4-4.8V49.9A27.19,27.19,0,0,1,296,22.5h48.1a27.19,27.19,0,0,1,27.4,27.4V97.5c0,13.9-9,24.9-22.8,27.4a24.18,24.18,0,0,1-4.7.4C336,125.3,328,125.2,320,125.2Zm36.2-51.4V50.2c0-7.4-5.1-12.5-12.5-12.5H296.5c-7.4,0-12.5,5.1-12.5,12.5V97.4c0,7.4,5.1,12.5,12.5,12.5h47.2c7.4,0,12.5-5.1,12.5-12.5Z" style="fill:#fff"/></g></g></svg>