<svg xmlns="http://www.w3.org/2000/svg" viewBox="0 0 89.74 38.17"><g id="Layer_2" data-name="Layer 2"><g id="Layer_1-2" data-name="Layer 1"><path d="M80.27,11.4a8,8,0,0,1,8,8V30.1a6.66,6.66,0,0,1-6.6,6.6H17.87a8,8,0,0,1-8-7" style="fill:none;stroke:#fff;stroke-linecap:round;stroke-linejoin:round;stroke-width:2.940000057220459px"/><path d="M9.47,3.6h62.4a8,8,0,0,1,8,8h0V23a5.8,5.8,0,0,1-5.8,5.8H9.47a8,8,0,0,1-8-8V11.6A8,8,0,0,1,9.47,3.6Z" style="fill:none;stroke:#fff;stroke-linecap:round;stroke-linejoin:round;stroke-width:2.940000057220459px"/><path d="M15.07,28.1V25.4a7.49,7.49,0,0,1,7.5-7.5h0a7.49,7.49,0,0,1,7.5,7.5h0v2.7" style="fill:none;stroke:#fff;stroke-linecap:round;stroke-linejoin:round;stroke-width:3px"/><circle cx="22.57" cy="13.5" r="4.4" style="fill:none;stroke:#fff;stroke-linecap:round;stroke-linejoin:round;stroke-width:3px"/><path d="M53.07,28.1V25.4a7.49,7.49,0,0,1,7.5-7.5h0a7.49,7.49,0,0,1,7.5,7.5v2.7" style="fill:none;stroke:#fff;stroke-linecap:round;stroke-linejoin:round;stroke-width:3px"/><circle cx="60.57" cy="13.5" r="4.4" style="fill:none;stroke:#fff;stroke-linecap:round;stroke-linejoin:round;stroke-width:3px"/><circle cx="34.07" cy="16.2" r="1.6" style="fill:#fff"/><circle cx="41.27" cy="16.2" r="1.6" style="fill:#fff"/><circle cx="48.97" cy="16.2" r="1.6" style="fill:#fff"/><circle cx="78.07" cy="7.2" r="7.2" style="fill:#ff7300"/></g></g></svg>