<svg xmlns="http://www.w3.org/2000/svg" xmlns:xlink="http://www.w3.org/1999/xlink" viewBox="0 0 30.05 49.35"><defs><clipPath id="clip-path" transform="translate(-1.37 -0.67)"><path d="M16.3,0h0c9,0,16.3,6.7,16.3,15V35.6c0,8.3-7.3,15-16.3,15h0c-9,0-16.3-6.7-16.3-15V15C0,6.7,7.3,0,16.3,0Z" style="fill:none"/></clipPath></defs><g id="Layer_2" data-name="Layer 2"><g id="Layer_1-2" data-name="Layer 1"><path d="M16.4,1.7h0a14,14,0,0,1,14,14V35a14,14,0,0,1-14,14h0a14,14,0,0,1-14-14V15.7A14,14,0,0,1,16.4,1.7Z" transform="translate(-1.37 -0.67)" style="fill:none;stroke:#fff;stroke-miterlimit:10;stroke-width:2.0513999462127686px"/><g style="clip-path:url(#clip-path)"><line x1="23.83" y1="4.13" x2="11.63" y2="21.53" style="fill:none;stroke:#fff;stroke-linecap:round;stroke-miterlimit:10;stroke-width:1.892699956893921px"/><line x1="14.93" y1="33.23" x2="6.23" y2="45.53" style="fill:none;stroke:#fff;stroke-linecap:round;stroke-miterlimit:10;stroke-width:1.892699956893921px"/></g></g></g></svg>