<svg xmlns="http://www.w3.org/2000/svg" viewBox="0 0 91.6 36.8"><g id="Layer_2" data-name="Layer 2"><g id="Layer_1-2" data-name="Layer 1"><path d="M81.9,9.5a8,8,0,0,1,3.4.7" style="fill:none;stroke:#fff;stroke-linecap:round;stroke-linejoin:round;stroke-width:3px"/><path d="M89.5,14.6a8.53,8.53,0,0,1,.6,3.1V28.6a6.87,6.87,0,0,1-3.6,6" style="fill:none;stroke:#fff;stroke-linecap:round;stroke-linejoin:round;stroke-width:3px;stroke-dasharray:6.130899906158447,6.130899906158447,6.130899906158447,6.130899906158447"/><path d="M83.5,35.3H18.3a8.44,8.44,0,0,1-4.9-1.6" style="fill:none;stroke:#fff;stroke-linecap:round;stroke-linejoin:round;stroke-width:3px;stroke-dasharray:6.130899906158447,6.130899906158447,6.130899906158447,6.130899906158447,6.130899906158447,6.130899906158447"/><path d="M11.3,31.4a7.6,7.6,0,0,1-1.1-3.3" style="fill:none;stroke:#fff;stroke-linecap:round;stroke-linejoin:round;stroke-width:3px"/><path d="M75.6,27.4H9.7a8.24,8.24,0,0,1-8.2-8.2V9.7A8.24,8.24,0,0,1,9.7,1.5H73.4a8.24,8.24,0,0,1,8.2,8.2V21.4A6.15,6.15,0,0,1,75.6,27.4Z" style="fill:none;stroke:#fff;stroke-linecap:round;stroke-linejoin:round;stroke-width:3px;stroke-dasharray:6.617599964141846,6.617599964141846,6.617599964141846,6.617599964141846,6.617599964141846,6.617599964141846"/></g></g></svg>