<?xml version="1.0" encoding="UTF-8"?><svg id="Layer_1" xmlns="http://www.w3.org/2000/svg" viewBox="0 0 80 80"><path d="M19.73,35.46c-.5,0-1.02-.12-1.49-.38l-4.51-2.55-4.47,2.54c-1.09,.58-2.34,.49-3.3-.21-.96-.7-1.42-1.87-1.2-3.03l1.04-5.05-3.82-3.52c-.91-.91-1.2-2.15-.81-3.28,.38-1.1,1.35-1.86,2.52-2l5.1-.59,2.17-4.71c.41-1.03,1.43-1.73,2.63-1.76,1.23,0,2.34,.65,2.86,1.75l2.17,4.71,5.06,.59c1.13,.08,2.09,.79,2.52,1.84,.46,1.14,.22,2.45-.6,3.35-.03,.03-.06,.06-.09,.09l-3.82,3.52,1.04,5.02c.22,1.23-.24,2.39-1.19,3.08-.53,.38-1.15,.58-1.79,.58Zm-5.98-6c.39,0,.77,.09,1.13,.27l4.81,2.72-1.02-5.42c-.18-.73,.08-1.59,.72-2.23l4-3.69c.04-.07,.02-.16,0-.18-.05-.02-.01,.03-.04,.03h0l-5.39-.62c-.9-.05-1.71-.66-2-1.51l-2.25-4.89-2.33,4.98c-.26,.52-.74,1.14-1.7,1.38-.06,.02-.13,.03-.2,.04l-5.45,.63s-.06,.05,.02,.13l3.98,3.67c.54,.54,.8,1.21,.8,1.97,0,.1-.01,.2-.03,.3l-1.11,5.37,4.82-2.63c.41-.21,.83-.31,1.23-.31Zm7.83-3.09v.07s0-.04,0-.07Zm2.89-4.22h0Z"/><path d="M21.64,78.95H5.76c-1.95,0-3.47-1.53-3.47-3.47V41.58c0-1.95,1.53-3.47,3.47-3.47h15.88c1.95,0,3.47,1.53,3.47,3.47v33.9c0,1.95-1.53,3.47-3.47,3.47ZM5.76,41.11c-.28,0-.47,.2-.47,.47v33.9c0,.28,.2,.47,.47,.47h15.88c.27,0,.47-.2,.47-.47V41.58c0-.28-.19-.47-.47-.47H5.76Z"/><path d="M46.03,25.51c-.5,0-1.01-.12-1.49-.38l-4.51-2.55-4.47,2.54c-1.09,.58-2.34,.49-3.3-.21-.96-.7-1.42-1.87-1.2-3.03l1.04-5.05-3.82-3.52c-.91-.91-1.2-2.15-.81-3.28,.38-1.1,1.35-1.86,2.52-2l5.1-.59,2.17-4.71c.41-1.03,1.43-1.73,2.63-1.76,1.24-.02,2.34,.65,2.86,1.75l2.17,4.71,5.09,.59s0,0,.01,0c1.13,.14,2.09,.91,2.49,1.99,.41,1.11,.17,2.33-.62,3.19-.03,.03-.06,.06-.09,.09l-3.82,3.52,1.04,5.02c.22,1.23-.24,2.39-1.19,3.08-.53,.38-1.15,.58-1.78,.58Zm-5.98-6c.39,0,.77,.09,1.13,.27l4.81,2.72-1.02-5.42c-.18-.73,.08-1.59,.72-2.23l3.99-3.67c.02-.13,0-.17-.02-.17l-5.39-.63c-.91-.05-1.71-.66-2-1.51l-2.25-4.88-2.33,4.98c-.26,.52-.75,1.14-1.71,1.38-.06,.02-.13,.03-.19,.04l-5.45,.63s-.06,.05,.02,.13l3.98,3.67c.39,.39,.8,1,.8,1.97,0,.1-.01,.2-.03,.3l-1.11,5.37,4.82-2.63c.41-.21,.83-.31,1.23-.31Zm7.83-3.09v.07s0-.04,0-.07Z"/><path d="M47.86,78.95h-15.88c-1.95,0-3.47-1.53-3.47-3.47V31.63c0-1.95,1.53-3.47,3.47-3.47h15.95c.94,0,1.86,.4,2.51,1.1,.62,.67,.93,1.52,.89,2.42v43.8c0,1.95-1.53,3.47-3.47,3.47ZM31.98,31.16c-.28,0-.47,.19-.47,.47v43.85c0,.28,.2,.47,.47,.47h15.88c.27,0,.47-.2,.47-.47V31.63s0-.07,0-.11c0-.03,0-.12-.09-.22-.08-.09-.2-.14-.31-.14h-15.95Z"/><path d="M72.33,40.36c-.5,0-1.02-.12-1.49-.38l-4.51-2.55-4.47,2.54c-1.09,.58-2.34,.49-3.3-.21-.96-.71-1.42-1.87-1.2-3.03l1.04-5.05-3.82-3.52c-.91-.91-1.2-2.15-.81-3.28,.38-1.1,1.35-1.86,2.52-2l5.1-.59,2.17-4.71c.41-1.03,1.43-1.73,2.63-1.76,1.22,0,2.34,.65,2.86,1.75l2.17,4.71,5.09,.59s0,0,.01,0c1.16,.14,2.12,.94,2.51,2.08,.39,1.13,.13,2.34-.69,3.15l-3.86,3.56,1.04,5.02c.22,1.23-.24,2.39-1.19,3.08-.53,.38-1.15,.58-1.79,.58Zm-5.98-6c.39,0,.77,.09,1.13,.27l4.81,2.72-1.02-5.42c-.18-.73,.08-1.59,.73-2.23l4.07-3.75s-.08-.06-.12-.09l-5.37-.62c-.9-.05-1.71-.66-2-1.51l-2.25-4.89-2.33,4.98c-.26,.52-.75,1.14-1.71,1.38-.06,.02-.13,.03-.19,.04l-5.45,.63s-.06,.05,.02,.13l3.98,3.67c.39,.38,.8,1,.8,1.97,0,.1-.01,.2-.03,.3l-1.11,5.37,4.82-2.63c.41-.21,.83-.31,1.23-.31Zm7.83-3.09v.07s0-.04,0-.07Z"/><path d="M74.16,79.03h-15.87c-1.95,0-3.47-1.53-3.47-3.47v-29c0-1.95,1.53-3.47,3.47-3.47h15.87c.99,0,1.93,.41,2.59,1.12,.62,.66,.93,1.51,.88,2.4v28.95c0,1.95-1.53,3.47-3.47,3.47Zm-15.87-32.95c-.28,0-.47,.2-.47,.47v29c0,.28,.2,.47,.47,.47h15.87c.28,0,.47-.2,.47-.47v-29s0-.07,0-.11c0-.05,0-.12-.08-.21-.09-.1-.24-.16-.4-.16h-15.87Z"/></svg>