<?xml version="1.0" encoding="utf-8"?>
<!-- Generator: Adobe Illustrator 26.5.0, SVG Export Plug-In . SVG Version: 6.00 Build 0)  -->
<svg version="1.1" id="Layer_1" xmlns="http://www.w3.org/2000/svg" xmlns:xlink="http://www.w3.org/1999/xlink" x="0px" y="0px"
	 viewBox="0 0 80 80" enable-background="new 0 0 80 80" xml:space="preserve">
<g>
	<g>
		<g>
			<path d="M46.5,79.5c-0.5,0-1-0.2-1.4-0.6l-44-44c-0.4-0.4-0.6-0.9-0.6-1.4s0.2-1,0.6-1.4c8.6-8.6,22.6-8.6,31.2,0l15.6,15.6
				c8.6,8.6,8.6,22.6,0,31.2C47.5,79.3,47,79.5,46.5,79.5z M5.4,33.6l41,41c5.7-7.1,5.2-17.5-1.3-24.1L29.5,34.9
				C22.9,28.4,12.5,27.9,5.4,33.6z"/>
		</g>
		<g>
			<path d="M10.5,74.3c-0.5,0-1-0.2-1.4-0.6c-0.8-0.8-0.8-2,0-2.8l15.4-15.4c0.8-0.8,2-0.8,2.8,0c0.8,0.8,0.8,2,0,2.8L11.9,73.7
				C11.5,74.1,11,74.3,10.5,74.3z"/>
		</g>
	</g>
	<g>
		<path d="M77.5,32.3c-0.5,0-1-0.2-1.4-0.6L48.3,3.9c-0.8-0.8-0.8-2,0-2.8c0.8-0.8,2-0.8,2.8,0l27.8,27.8c0.8,0.8,0.8,2,0,2.8
			C78.5,32.1,78,32.3,77.5,32.3z"/>
	</g>
	<g>
		<path d="M49.3,55.4L24.6,30.7L56.1,6L74,23.9L49.3,55.4z M30.6,31L49,49.4l19.7-25.2L55.7,11.3L30.6,31z"/>
	</g>
</g>
</svg>
