<?xml version="1.0" encoding="utf-8"?>
<!-- Generator: Adobe Illustrator 26.5.0, SVG Export Plug-In . SVG Version: 6.00 Build 0)  -->
<svg version="1.1" id="Layer_1" xmlns="http://www.w3.org/2000/svg" xmlns:xlink="http://www.w3.org/1999/xlink" x="0px" y="0px"
	 viewBox="0 0 80 77.5" enable-background="new 0 0 80 77.5" xml:space="preserve">
<g>
	<g>
		<path d="M32.5,64.3c-17.6,0-32-14.4-32-32s14.4-32,32-32s32,14.4,32,32S50.1,64.3,32.5,64.3z M32.5,4.3c-15.4,0-28,12.6-28,28
			s12.6,28,28,28s28-12.6,28-28S47.9,4.3,32.5,4.3z"/>
	</g>
	<g>
		<path d="M77.5,77.2c-0.5,0-1-0.2-1.4-0.6L53.3,53.8c-0.8-0.8-0.8-2,0-2.8c0.8-0.8,2-0.8,2.8,0l22.8,22.8c0.8,0.8,0.8,2,0,2.8
			C78.5,77,78,77.2,77.5,77.2z"/>
	</g>
</g>
</svg>
