<?xml version="1.0" encoding="utf-8"?>
<!-- Generator: Adobe Illustrator 26.5.0, SVG Export Plug-In . SVG Version: 6.00 Build 0)  -->
<svg version="1.1" id="Layer_1" xmlns="http://www.w3.org/2000/svg" xmlns:xlink="http://www.w3.org/1999/xlink" x="0px" y="0px"
	 viewBox="0 0 80 76.5" enable-background="new 0 0 80 76.5" xml:space="preserve">
<g>
	<path d="M60,76.2H20c-3.1,0-5.9-2-6.8-5L0.8,33.2c-1-3,0.1-6.2,2.6-8L35.8,1.7l0,0c2.5-1.8,5.9-1.8,8.4,0l32.4,23.5
		c2.5,1.8,3.6,5.1,2.6,8L66.8,71.3C65.9,74.2,63.1,76.2,60,76.2z M38.2,5L5.8,28.5c-1.1,0.8-1.5,2.2-1.1,3.4L17.1,70
		c0.4,1.3,1.6,2.1,2.9,2.1h40c1.3,0,2.5-0.9,2.9-2.1l12.4-38.1c0.4-1.3,0-2.6-1.1-3.4L41.8,5C40.7,4.2,39.3,4.2,38.2,5L38.2,5z"/>
</g>
</svg>
