<?xml version="1.0" encoding="utf-8"?>
<!-- Generator: Adobe Illustrator 26.5.0, SVG Export Plug-In . SVG Version: 6.00 Build 0)  -->
<svg version="1.1" id="Layer_1" xmlns="http://www.w3.org/2000/svg" xmlns:xlink="http://www.w3.org/1999/xlink" x="0px" y="0px"
	 viewBox="0 0 80 80" enable-background="new 0 0 80 80" xml:space="preserve">
<g>
	<g>
		<path d="M9.8,34.8l-3-0.5c2.4-14,13.4-25.1,27.4-27.5l0.5,3C22,12,12,22,9.8,34.8z"/>
	</g>
	<g>
		<path d="M45.7,73.1l-0.5-3C58,68,68,58,70.2,45.2l3,0.5C70.8,59.7,59.7,70.8,45.7,73.1z"/>
	</g>
	<g>
		<path d="M34.3,73.1c-14-2.4-25.1-13.4-27.4-27.4l3-0.5C12,58,22,68,34.8,70.2L34.3,73.1z"/>
	</g>
	<g>
		<path d="M70.2,34.8C68,22,58,12,45.2,9.8l0.5-3c14,2.4,25.1,13.4,27.5,27.5L70.2,34.8z"/>
	</g>
	<g>
		<path d="M20.7,35l-2.9-0.7c2.1-8.1,8.4-14.4,16.4-16.4l0.7,2.9C28,22.5,22.5,28,20.7,35z"/>
	</g>
	<g>
		<path d="M45.8,62.2L45,59.3C52,57.5,57.5,52,59.3,45l2.9,0.7C60.1,53.8,53.8,60.1,45.8,62.2z"/>
	</g>
	<g>
		<path d="M34.2,62.2c-8-2.1-14.3-8.4-16.4-16.4l2.9-0.7C22.5,52,28,57.5,35,59.3L34.2,62.2z"/>
	</g>
	<g>
		<path d="M59.3,35C57.5,28,52,22.5,45,20.7l0.7-2.9c8.1,2.1,14.4,8.4,16.4,16.4L59.3,35z"/>
	</g>
	<g>
		<path d="M72,47H61.5c-3.8,0-7-3.1-7-7s3.1-7,7-7H72c3.8,0,7,3.1,7,7S75.9,47,72,47z M61.5,36c-2.2,0-4,1.8-4,4s1.8,4,4,4H72
			c2.2,0,4-1.8,4-4s-1.8-4-4-4H61.5z"/>
	</g>
	<g>
		<path d="M18.5,47H8c-3.8,0-7-3.1-7-7s3.1-7,7-7h10.5c3.8,0,7,3.1,7,7S22.3,47,18.5,47z M8,36c-2.2,0-4,1.8-4,4s1.8,4,4,4h10.5
			c2.2,0,4-1.8,4-4s-1.8-4-4-4H8z"/>
	</g>
	<g>
		<path d="M40,25.4c-3.8,0-7-3.1-7-7V8c0-3.8,3.1-7,7-7s7,3.1,7,7v10.5C47,22.3,43.8,25.4,40,25.4z M40,4c-2.2,0-4,1.8-4,4v10.5
			c0,2.2,1.8,4,4,4s4-1.8,4-4V8C44,5.8,42.2,4,40,4z"/>
	</g>
	<g>
		<path d="M40,79c-3.8,0-7-3.1-7-7V61.5c0-3.8,3.1-7,7-7s7,3.1,7,7V72C47,75.9,43.8,79,40,79z M40,57.6c-2.2,0-4,1.8-4,4V72
			c0,2.2,1.8,4,4,4s4-1.8,4-4V61.5C44,59.3,42.2,57.6,40,57.6z"/>
	</g>
</g>
</svg>
