<?xml version="1.0" encoding="utf-8"?>
<!-- Generator: Adobe Illustrator 26.5.0, SVG Export Plug-In . SVG Version: 6.00 Build 0)  -->
<svg version="1.1" id="Layer_1" xmlns="http://www.w3.org/2000/svg" xmlns:xlink="http://www.w3.org/1999/xlink" x="0px" y="0px"
	 viewBox="0 0 25 25" enable-background="new 0 0 25 25" xml:space="preserve">
<g>
	<g>
		<path fill="#60A3BF" d="M21,13.4c-0.2-0.3-0.6-0.5-0.9-0.5l0.7-0.8c0.3-0.3,0.5-0.8,0.6-1.2c0-0.5-0.1-0.9-0.5-1.3
			C20.7,9.3,20.3,9.1,20,9l0.2-0.2c0.3-0.3,0.5-0.8,0.6-1.2c0-0.5-0.1-0.9-0.5-1.3c-0.3-0.4-0.8-0.6-1.3-0.6c-0.5,0-1,0.2-1.3,0.5
			l-0.1,0.1c-0.3-0.3-0.7-0.5-1.2-0.5c-0.5,0-1,0.2-1.3,0.5l-0.9,0.9c-0.1-0.4-0.3-0.8-0.6-1c-0.3-0.2-0.7-0.4-1.1-0.4
			c-0.5,0-0.9,0.2-1.3,0.5L7.9,9.6c-0.1-0.5-0.3-1-0.7-1.4C6.9,8,6.6,7.9,6.3,7.9C5.9,7.9,5.6,8,5.3,8.3l-3.1,3.1
			c-1.4,1.3-2.2,3.1-2.2,5s0.6,3.8,1.9,5.2c0.9,1,2,1.7,3.2,2.1s2.6,0.4,3.8,0.1c0.3,0,0.7,0.1,1,0.1c1.9,0,3.8-0.8,5.1-2.1l5.8-5.8
			c0.3-0.3,0.5-0.8,0.6-1.2C21.4,14.2,21.3,13.7,21,13.4z M20.3,10.1c0.2,0.2,0.2,0.4,0.2,0.7c0,0.2-0.1,0.5-0.3,0.6l-1.9,1.9
			c0,0,0,0,0,0c0,0-0.1,0-0.1-0.1c0,0-0.1-0.1-0.1-0.1c0,0-0.1,0-0.1-0.1c0,0-0.1,0-0.1-0.1c0,0-0.1,0-0.1,0c-0.1,0-0.2-0.1-0.2-0.1
			l0.6-0.6l0.2-0.1c0.1-0.1,0.1-0.2,0.2-0.2c0,0,0-0.1,0.1-0.1c0,0,0.1-0.1,0.1-0.1c0,0,0-0.1,0.1-0.2c0,0,0,0,0-0.1
			c0.1-0.2,0.1-0.4,0.1-0.6v-0.1c0-0.1,0-0.2,0-0.2c0,0,0,0,0,0c0,0,0-0.1,0-0.1l0.2-0.2c0.2-0.2,0.4-0.3,0.6-0.3h0
			C19.8,9.8,20.1,9.9,20.3,10.1z M17.6,9c0.1-0.1,0.2-0.2,0.2-0.3c0,0,0,0,0,0c0.1-0.1,0.1-0.2,0.1-0.2c0,0,0,0,0-0.1
			C18,8.2,18,8.1,18.1,8c0,0,0-0.1,0-0.1c0-0.1,0-0.1,0-0.2c0,0,0-0.1,0-0.1c0-0.1,0-0.1,0-0.2c0,0,0-0.1,0-0.1c0-0.1,0-0.2-0.1-0.3
			l0.2-0.2c0.2-0.2,0.4-0.3,0.7-0.3c0.3,0,0.5,0.1,0.7,0.3c0.2,0.2,0.2,0.4,0.2,0.7c0,0.2-0.1,0.5-0.3,0.7l-1.2,1.2l0,0l-0.1,0.1
			c0,0,0,0,0,0c0,0-0.1-0.1-0.1-0.1c0,0-0.1,0-0.1-0.1c0,0-0.1,0-0.1-0.1c0,0-0.1,0-0.1-0.1c0,0-0.1,0-0.1,0c-0.1,0-0.2-0.1-0.2-0.1
			L17.6,9z M11,22c-0.1,0.1-0.2,0.1-0.3,0.2c0,0-0.1,0.1-0.1,0.1c-0.1,0-0.2,0.1-0.3,0.2c-0.1,0-0.1,0.1-0.2,0.1
			c-0.1,0-0.2,0.1-0.2,0.1c-0.1,0-0.1,0.1-0.2,0.1c-0.1,0-0.1,0.1-0.2,0.1c-0.1,0-0.2,0.1-0.2,0.1c0,0,0,0,0,0
			c-0.1,0-0.2,0.1-0.4,0.1c0,0,0,0,0,0c-0.5,0.1-1,0.2-1.5,0.2c-1,0-2-0.2-2.9-0.7C3.7,22.1,3,21.6,2.5,21c-1.1-1.3-1.7-2.9-1.6-4.6
			c0.1-1.7,0.8-3.3,2-4.4L6,8.9C6,8.8,6.2,8.8,6.3,8.8c0.1,0,0.2,0,0.3,0.1c0.3,0.3,0.4,0.6,0.4,1c0,0.4-0.1,0.7-0.4,1l-2.9,2.9
			c-0.1,0.1-0.1,0.2-0.1,0.3c0,0.1,0,0.2,0.1,0.3c0.1,0.1,0.2,0.1,0.3,0.1c0.1,0,0.2,0,0.3-0.1L11.8,7c0.2-0.2,0.4-0.3,0.7-0.3
			s0.5,0.1,0.7,0.3c0.2,0.2,0.3,0.4,0.3,0.7s-0.1,0.5-0.3,0.7l-4.9,4.9c-0.1,0.1-0.1,0.2-0.1,0.3c0,0.1,0,0.2,0.1,0.3
			c0.1,0.1,0.2,0.1,0.3,0.1c0.1,0,0.2-0.1,0.3-0.1l4.9-4.9l2-1.9c0.2-0.2,0.4-0.3,0.7-0.3c0.3,0,0.5,0.1,0.7,0.3
			c0.1,0.1,0.2,0.3,0.2,0.5c0,0,0,0,0,0v0.2c0,0,0,0.1,0,0.1c0,0,0,0,0,0c0,0,0,0.1,0,0.1c0,0,0,0,0,0c0,0.1-0.1,0.2-0.2,0.3l-1,1
			l-0.2,0.2v0l-5.5,5.5c-0.1,0.1-0.1,0.2-0.1,0.3c0,0.1,0,0.2,0.1,0.3c0.1,0.1,0.2,0.1,0.3,0.1c0.1,0,0.2,0,0.3-0.1l5.5-5.5
			c0,0,0,0,0-0.1c0.2-0.1,0.4-0.2,0.6-0.2h0c0.1,0,0.1,0,0.2,0c0.2,0,0.4,0.1,0.5,0.3c0.1,0.1,0.2,0.2,0.2,0.4c0.1,0.3,0,0.7-0.3,1
			l-0.1,0.1l-1.8,1.8c0,0,0,0,0,0L12.1,17c-0.1,0.1-0.1,0.2-0.1,0.3c0,0.1,0,0.2,0.1,0.3c0.1,0.1,0.2,0.1,0.3,0.1
			c0.1,0,0.2,0,0.3-0.1l3.6-3.6c0.1-0.1,0.3-0.2,0.5-0.3h0c0.1,0,0.1,0,0.2,0c0,0,0.1,0,0.2,0l0,0c0,0,0,0,0.1,0
			c0.2,0,0.3,0.1,0.4,0.3c0,0,0.1,0.1,0.1,0.1c0.1,0.2,0.1,0.4,0.1,0.6c0,0.2-0.1,0.4-0.3,0.6l-5.8,5.8c-0.1,0.1-0.2,0.2-0.4,0.3
			c0,0,0,0-0.1,0.1c-0.1,0.1-0.2,0.2-0.3,0.2C11,21.9,11,21.9,11,22z M20.2,15.3l-5.8,5.8c-0.9,0.9-2,1.5-3.3,1.8c0,0,0,0,0.1-0.1
			c0.1-0.1,0.3-0.2,0.4-0.3c0.1,0,0.2-0.1,0.2-0.2c0.2-0.1,0.3-0.3,0.5-0.4c0,0,0.1-0.1,0.1-0.1l5.8-5.8c0.1-0.1,0.2-0.2,0.2-0.3
			c0,0,0-0.1,0.1-0.1c0,0,0.1-0.1,0.1-0.2c0,0,0.1-0.1,0.1-0.2c0,0,0-0.1,0-0.1c0.1-0.2,0.1-0.5,0.1-0.7v0c0-0.1,0-0.1,0-0.2
			c0,0,0-0.1,0-0.1c0,0,0-0.1,0-0.1l0.2-0.2c0.2-0.2,0.4-0.3,0.7-0.3c0.3,0,0.5,0.1,0.7,0.3c0.2,0.2,0.2,0.4,0.2,0.7
			C20.5,14.9,20.4,15.1,20.2,15.3z"/>
	</g>
	<path fill="#80D9FF" d="M20.5,14.6c0,0.3-0.1,0.5-0.3,0.7l-5.8,5.8c-0.9,0.9-2,1.5-3.3,1.8c0,0,0,0,0.1-0.1
		c0.1-0.1,0.3-0.2,0.4-0.3c0.1,0,0.2-0.1,0.2-0.2c0.2-0.1,0.3-0.3,0.5-0.4c0,0,0.1-0.1,0.1-0.1l5.8-5.8c0.1-0.1,0.2-0.2,0.2-0.3
		c0,0,0-0.1,0.1-0.1c0,0,0.1-0.1,0.1-0.2c0,0,0.1-0.1,0.1-0.2c0,0,0-0.1,0-0.1c0.1-0.2,0.1-0.5,0.1-0.7v0c0-0.1,0-0.1,0-0.2
		c0,0,0-0.1,0-0.1c0,0,0-0.1,0-0.1l0.2-0.2c0.2-0.2,0.4-0.3,0.7-0.3c0.3,0,0.5,0.1,0.7,0.3C20.5,14.1,20.6,14.4,20.5,14.6z"/>
	<path fill="#80D9FF" d="M19.8,7.6c0,0.2-0.1,0.5-0.3,0.7l-1.2,1.2l0,0l-0.1,0.1c0,0,0,0,0,0c0,0-0.1-0.1-0.1-0.1c0,0-0.1,0-0.1-0.1
		c0,0-0.1,0-0.1-0.1c0,0-0.1,0-0.1-0.1c0,0-0.1,0-0.1,0c-0.1,0-0.2-0.1-0.2-0.1L17.6,9c0.1-0.1,0.2-0.2,0.2-0.3c0,0,0,0,0,0
		c0.1-0.1,0.1-0.2,0.1-0.2c0,0,0,0,0-0.1C18,8.2,18,8.1,18.1,8c0,0,0-0.1,0-0.1c0-0.1,0-0.1,0-0.2c0,0,0-0.1,0-0.1
		c0-0.1,0-0.1,0-0.2c0,0,0-0.1,0-0.1c0-0.1,0-0.2-0.1-0.3l0.2-0.2c0.2-0.2,0.4-0.3,0.7-0.3c0.3,0,0.5,0.1,0.7,0.3
		C19.8,7.1,19.9,7.3,19.8,7.6z"/>
	<path fill="#80D9FF" d="M20.5,10.8c0,0.2-0.1,0.5-0.3,0.6l-1.9,1.9c0,0,0,0,0,0c0,0-0.1,0-0.1-0.1c0,0-0.1-0.1-0.1-0.1
		c0,0-0.1,0-0.1-0.1c0,0-0.1,0-0.1-0.1c0,0-0.1,0-0.1,0c-0.1,0-0.2-0.1-0.2-0.1l0.6-0.6l0.2-0.1c0.1-0.1,0.1-0.2,0.2-0.2
		c0,0,0-0.1,0.1-0.1c0,0,0.1-0.1,0.1-0.1c0,0,0-0.1,0.1-0.2c0,0,0,0,0-0.1c0.1-0.2,0.1-0.4,0.1-0.6v-0.1c0-0.1,0-0.2,0-0.2
		c0,0,0,0,0,0c0,0,0-0.1,0-0.1l0.2-0.2c0.2-0.2,0.4-0.3,0.6-0.3h0c0.2,0,0.5,0.1,0.7,0.3C20.4,10.3,20.5,10.5,20.5,10.8z"/>
	<path fill="#80D9FF" d="M17.9,14.8c0,0.2-0.1,0.4-0.3,0.6l-5.8,5.8c-0.1,0.1-0.2,0.2-0.4,0.3c0,0,0,0-0.1,0.1
		c-0.1,0.1-0.2,0.2-0.3,0.2c0,0-0.1,0.1-0.1,0.1c-0.1,0.1-0.2,0.1-0.3,0.2c0,0-0.1,0.1-0.1,0.1c-0.1,0-0.2,0.1-0.3,0.2
		c-0.1,0-0.1,0.1-0.2,0.1c-0.1,0-0.2,0.1-0.2,0.1c-0.1,0-0.1,0.1-0.2,0.1c-0.1,0-0.1,0.1-0.2,0.1c-0.1,0-0.2,0.1-0.2,0.1
		c0,0,0,0,0,0c-0.1,0-0.2,0.1-0.4,0.1c0,0,0,0,0,0c-0.5,0.1-1,0.2-1.5,0.2c-1,0-2-0.2-2.9-0.7C3.7,22.1,3,21.6,2.5,21
		c-1.1-1.3-1.7-2.9-1.6-4.6c0.1-1.7,0.8-3.3,2-4.4L6,8.9C6,8.8,6.2,8.8,6.3,8.8c0.1,0,0.2,0,0.3,0.1c0.3,0.3,0.4,0.6,0.4,1
		c0,0.4-0.1,0.7-0.4,1l-2.9,2.9c-0.1,0.1-0.1,0.2-0.1,0.3c0,0.1,0,0.2,0.1,0.3c0.1,0.1,0.2,0.1,0.3,0.1c0.1,0,0.2,0,0.3-0.1L11.8,7
		c0.2-0.2,0.4-0.3,0.7-0.3s0.5,0.1,0.7,0.3c0.2,0.2,0.3,0.4,0.3,0.7s-0.1,0.5-0.3,0.7l-4.9,4.9c-0.1,0.1-0.1,0.2-0.1,0.3
		c0,0.1,0,0.2,0.1,0.3c0.1,0.1,0.2,0.1,0.3,0.1c0.1,0,0.2-0.1,0.3-0.1l4.9-4.9l2-1.9c0.2-0.2,0.4-0.3,0.7-0.3c0.3,0,0.5,0.1,0.7,0.3
		c0.1,0.1,0.2,0.3,0.2,0.5c0,0,0,0,0,0v0.2c0,0,0,0.1,0,0.1c0,0,0,0,0,0c0,0,0,0.1,0,0.1c0,0,0,0,0,0c0,0.1-0.1,0.2-0.2,0.3l-1,1
		l-0.2,0.2v0l-5.5,5.5c-0.1,0.1-0.1,0.2-0.1,0.3c0,0.1,0,0.2,0.1,0.3c0.1,0.1,0.2,0.1,0.3,0.1c0.1,0,0.2,0,0.3-0.1l5.5-5.5
		c0,0,0,0,0-0.1c0.2-0.1,0.4-0.2,0.6-0.2h0c0.1,0,0.1,0,0.2,0c0.2,0,0.4,0.1,0.5,0.3c0.1,0.1,0.2,0.2,0.2,0.4c0.1,0.3,0,0.7-0.3,1
		l-0.1,0.1l-1.8,1.8c0,0,0,0,0,0L12.1,17c-0.1,0.1-0.1,0.2-0.1,0.3c0,0.1,0,0.2,0.1,0.3c0.1,0.1,0.2,0.1,0.3,0.1
		c0.1,0,0.2,0,0.3-0.1l3.6-3.6c0.1-0.1,0.3-0.2,0.5-0.3h0c0.1,0,0.1,0,0.2,0c0,0,0.1,0,0.2,0l0,0c0,0,0,0,0.1,0
		c0.2,0,0.3,0.1,0.4,0.3c0,0,0.1,0.1,0.1,0.1C17.9,14.4,18,14.6,17.9,14.8z"/>
	<path fill="#60A3BF" d="M24.9,1.6c-0.2-0.2-0.4-0.2-0.6,0l-3.1,3.1c-0.1,0.1-0.1,0.2-0.1,0.3c0,0.1,0,0.2,0.1,0.3
		c0.1,0.1,0.2,0.1,0.3,0.1c0.1,0,0.2,0,0.3-0.1l3.1-3.1C25,2,25,1.7,24.9,1.6z"/>
	<path fill="#60A3BF" d="M24.4,4.9l-2,1C22.1,6,22,6.3,22.1,6.5c0.1,0.2,0.4,0.3,0.6,0.2l2-1C25,5.6,25.1,5.3,25,5.1
		C24.8,4.9,24.6,4.8,24.4,4.9z"/>
	<path fill="#60A3BF" d="M19.7,4.4c0.2,0.1,0.5,0.1,0.6-0.1l1.6-2.6C22,1.4,22,1.2,21.8,1.1c-0.2-0.1-0.5-0.1-0.6,0.1l-1.6,2.6
		C19.5,4,19.5,4.3,19.7,4.4L19.7,4.4z"/>
	<path fill="#60A3BF" d="M11.3,4.6c0.1,0.2,0.3,0.3,0.6,0.2c0.2-0.1,0.3-0.3,0.2-0.6l-1.3-3C10.7,1,10.5,0.9,10.3,1
		c-0.2,0.1-0.3,0.3-0.2,0.6L11.3,4.6z"/>
	<path fill="#60A3BF" d="M13.5,4.9c0.1,0,0.2,0,0.3-0.1c0.1-0.1,0.1-0.2,0.1-0.3V1.9c0-0.2-0.2-0.4-0.4-0.4S13,1.6,13,1.9v2.6
		c0,0.1,0,0.2,0.1,0.3C13.2,4.8,13.3,4.9,13.5,4.9z"/>
	<path fill="#60A3BF" d="M9.7,5.6c0.1,0.2,0.4,0.2,0.6,0.1c0.2-0.1,0.2-0.4,0.1-0.6L8.6,2.9C8.5,2.7,8.2,2.7,8,2.8
		C7.8,3,7.8,3.2,8,3.4L9.7,5.6z"/>
</g>
</svg>
