<?xml version="1.0" encoding="utf-8"?>
<!-- Generator: Adobe Illustrator 26.5.0, SVG Export Plug-In . SVG Version: 6.00 Build 0)  -->
<svg version="1.1" id="Layer_1" xmlns="http://www.w3.org/2000/svg" xmlns:xlink="http://www.w3.org/1999/xlink" x="0px" y="0px"
	 viewBox="0 0 25 25" enable-background="new 0 0 25 25" xml:space="preserve">
<g>
	<polygon fill="#999999" points="4.8,9.9 5.4,16.4 9.9,15.4 10.4,8.7 	"/>
	<polygon fill="#999999" points="22.9,18.4 18.2,8.8 12.2,10.6 13.2,18.7 	"/>
	<g>
		<g>
			<g>
				<path fill="#CCCCCC" d="M11,12.4c-0.1,0-0.3,0-0.3-0.1c-0.1-0.1-0.2-0.3-0.1-0.5l2.2-9.1c0-0.2,0.2-0.3,0.4-0.4L16,1.5
					c0,0,0.1,0,0.1,0c0.2,0,0.4,0.1,0.4,0.3l3.7,7.6c0.1,0.1,0.1,0.3,0,0.4C20.2,9.9,20,10,19.9,10l-2.6,0.7c0,0-0.1,0-0.1,0
					c-0.2,0-0.4-0.1-0.5-0.3l-0.3-0.7l-2.1,0.6l-0.2,1c0,0.2-0.2,0.3-0.4,0.4l-2.6,0.7C11.1,12.4,11.1,12.4,11,12.4z M15,6.9
					l0.2-0.1l-0.1-0.3L15,6.9z"/>
				<path fill="#999999" d="M16.1,2l3.7,7.6l-2.6,0.7l-0.5-1.1l-2.8,0.8l-0.3,1.3L11,11.9l2.2-9.1L16.1,2 M14.3,7.6l1.5-0.4l-1-2.3
					L14.3,7.6 M16.1,1c-0.1,0-0.2,0-0.3,0L13,1.8c-0.4,0.1-0.6,0.4-0.7,0.7l-2.2,9.1c-0.1,0.3,0,0.7,0.3,1c0.2,0.2,0.4,0.3,0.7,0.3
					c0.1,0,0.2,0,0.3,0l2.6-0.7c0.4-0.1,0.6-0.4,0.7-0.8l0.1-0.7l1.4-0.4l0.1,0.3c0.2,0.4,0.5,0.6,0.9,0.6c0.1,0,0.2,0,0.3,0
					l2.6-0.7c0.3-0.1,0.5-0.3,0.7-0.6s0.1-0.6,0-0.9L17,1.6C16.8,1.2,16.5,1,16.1,1L16.1,1z"/>
			</g>
			<g>
				<path fill="#CCCCCC" d="M2.2,13.4c-0.1,0-0.2,0-0.3-0.1c-0.1-0.1-0.2-0.2-0.2-0.4L1,4.6c0-0.2,0.1-0.5,0.4-0.5l2.5-0.7
					c0,0,0.1,0,0.1,0c0.1,0,0.2,0,0.3,0.1c0.1,0.1,0.2,0.2,0.2,0.4l0.2,2.3l1.9-0.5L6.3,3.2c0-0.2,0.1-0.5,0.4-0.5L9.2,2
					c0,0,0.1,0,0.1,0C9.5,2,9.6,2,9.6,2c0.1,0.1,0.2,0.2,0.2,0.4l0.7,8.3c0,0.2-0.1,0.5-0.4,0.5l-2.5,0.7c0,0-0.1,0-0.1,0
					c-0.1,0-0.2,0-0.3-0.1c-0.1-0.1-0.2-0.2-0.2-0.4L6.9,9L5,9.5l0.2,2.7c0,0.2-0.1,0.5-0.4,0.5l-2.5,0.7
					C2.3,13.4,2.3,13.4,2.2,13.4z"/>
				<path fill="#999999" d="M9.4,2.5l0.7,8.3l-2.5,0.7L7.3,8.4L4.5,9.1l0.3,3.1l-2.5,0.7L1.5,4.6L4,3.9l0.3,2.9L7.1,6L6.8,3.1
					L9.4,2.5 M9.4,1.5c-0.1,0-0.2,0-0.3,0L6.6,2.2C6.1,2.3,5.8,2.7,5.9,3.2l0.2,2L5.1,5.5L5,3.8c0-0.3-0.2-0.6-0.4-0.7
					C4.4,2.9,4.2,2.9,4,2.9c-0.1,0-0.2,0-0.3,0L1.2,3.6C0.8,3.7,0.5,4.2,0.5,4.6L1.2,13c0,0.3,0.2,0.6,0.4,0.7
					c0.2,0.1,0.4,0.2,0.6,0.2c0.1,0,0.2,0,0.3,0L5,13.2c0.5-0.1,0.8-0.6,0.7-1.1L5.5,9.9l0.9-0.2l0.2,1.9c0,0.3,0.2,0.6,0.4,0.7
					c0.2,0.1,0.4,0.2,0.6,0.2c0.1,0,0.2,0,0.3,0l2.5-0.7c0.5-0.1,0.8-0.6,0.7-1.1l-0.7-8.3c0-0.3-0.2-0.6-0.4-0.7
					C9.8,1.5,9.6,1.5,9.4,1.5L9.4,1.5z"/>
			</g>
		</g>
		<g>
			<g>
				<path fill="#CCCCCC" d="M14.8,22.5c-0.1,0-0.3,0-0.3-0.1c-0.1-0.1-0.2-0.3-0.1-0.5l2.2-9.1c0-0.2,0.2-0.3,0.4-0.4l2.8-0.8
					c0,0,0.1,0,0.1,0c0.2,0,0.4,0.1,0.4,0.3l3.7,7.6c0.1,0.1,0.1,0.3,0,0.4c-0.1,0.1-0.2,0.2-0.3,0.3L21,20.8c0,0-0.1,0-0.1,0
					c-0.2,0-0.4-0.1-0.5-0.3l-0.3-0.7L18,20.4l-0.2,1c0,0.2-0.2,0.3-0.4,0.4l-2.6,0.7C14.9,22.5,14.8,22.5,14.8,22.5z M18.7,17
					l0.2-0.1l-0.1-0.3L18.7,17z"/>
				<path fill="#999999" d="M19.8,12.1l3.7,7.6l-2.6,0.7l-0.5-1.1L17.6,20l-0.3,1.3L14.8,22l2.2-9.1L19.8,12.1 M18.1,17.7l1.5-0.4
					l-1-2.3L18.1,17.7 M19.8,11.1c-0.1,0-0.2,0-0.3,0l-2.8,0.8c-0.4,0.1-0.6,0.4-0.7,0.7l-2.2,9.1c-0.1,0.3,0,0.7,0.3,1
					c0.2,0.2,0.4,0.3,0.7,0.3c0.1,0,0.2,0,0.3,0l2.6-0.7c0.4-0.1,0.6-0.4,0.7-0.8l0.1-0.7l1.4-0.4l0.1,0.3c0.2,0.4,0.5,0.6,0.9,0.6
					c0.1,0,0.2,0,0.3,0l2.6-0.7c0.3-0.1,0.5-0.3,0.7-0.6c0.1-0.3,0.1-0.6,0-0.9l-3.7-7.6C20.6,11.3,20.2,11.1,19.8,11.1L19.8,11.1z"
					/>
			</g>
			<g>
				<path fill="#CCCCCC" d="M6,23.5c-0.1,0-0.2,0-0.3-0.1c-0.1-0.1-0.2-0.2-0.2-0.4l-0.7-8.3c0-0.2,0.1-0.5,0.4-0.5l2.5-0.7
					c0,0,0.1,0,0.1,0c0.1,0,0.2,0,0.3,0.1c0.1,0.1,0.2,0.2,0.2,0.4l0.2,2.3l1.9-0.5l-0.2-2.5c0-0.2,0.1-0.5,0.4-0.5l2.5-0.7
					c0,0,0.1,0,0.1,0c0.1,0,0.2,0,0.3,0.1c0.1,0.1,0.2,0.2,0.2,0.4l0.7,8.3c0,0.2-0.1,0.5-0.4,0.5L11.4,22c0,0-0.1,0-0.1,0
					c-0.1,0-0.2,0-0.3-0.1c-0.1-0.1-0.2-0.2-0.2-0.4l-0.2-2.5l-1.9,0.5L9,22.3c0,0.2-0.1,0.5-0.4,0.5l-2.5,0.7C6,23.5,6,23.5,6,23.5
					z"/>
				<path fill="#999999" d="M13.1,12.6l0.7,8.3l-2.5,0.7L11,18.5l-2.8,0.8l0.3,3.1L6,23l-0.7-8.3L7.7,14L8,16.9l2.8-0.8l-0.3-2.9
					L13.1,12.6 M13.1,11.6c-0.1,0-0.2,0-0.3,0l-2.5,0.7c-0.5,0.1-0.8,0.6-0.7,1.1l0.2,2l-0.9,0.2l-0.1-1.7c0-0.3-0.2-0.6-0.4-0.7
					C8.1,13,7.9,13,7.7,13c-0.1,0-0.2,0-0.3,0L5,13.7c-0.5,0.1-0.8,0.6-0.7,1.1L5,23.1c0,0.3,0.2,0.6,0.4,0.7C5.6,23.9,5.8,24,6,24
					c0.1,0,0.2,0,0.3,0l2.5-0.7c0.5-0.1,0.8-0.6,0.7-1.1L9.3,20l0.9-0.2l0.2,1.9c0,0.3,0.2,0.6,0.4,0.7c0.2,0.1,0.4,0.2,0.6,0.2
					c0.1,0,0.2,0,0.3,0l2.5-0.7c0.5-0.1,0.8-0.6,0.7-1.1l-0.7-8.3c0-0.3-0.2-0.6-0.4-0.7C13.5,11.6,13.3,11.6,13.1,11.6L13.1,11.6z"
					/>
			</g>
		</g>
	</g>
</g>
</svg>
