<?xml version="1.0" encoding="utf-8"?>
<!-- Generator: Adobe Illustrator 26.5.0, SVG Export Plug-In . SVG Version: 6.00 Build 0)  -->
<svg version="1.1" id="Layer_1" xmlns="http://www.w3.org/2000/svg" xmlns:xlink="http://www.w3.org/1999/xlink" x="0px" y="0px"
	 viewBox="0 0 25 25" enable-background="new 0 0 25 25" xml:space="preserve">
<g>
	<g>
		<polygon fill="#4DFFA1" points="10.5,10.7 10.5,14.1 8.2,14.1 8.2,16.4 4.8,16.4 4.8,14.1 2.5,14.1 2.5,10.7 4.8,10.7 4.8,8.4 
			8.2,8.4 8.2,10.7 		"/>
		<path fill="#3ECF82" d="M8.2,16.9H4.8c-0.3,0-0.5-0.2-0.5-0.5v-1.8H2.5c-0.3,0-0.5-0.2-0.5-0.5v-3.5c0-0.3,0.2-0.5,0.5-0.5h1.8
			V8.4c0-0.3,0.2-0.5,0.5-0.5h3.5c0.3,0,0.5,0.2,0.5,0.5v1.8h1.8c0.3,0,0.5,0.2,0.5,0.5v3.5c0,0.3-0.2,0.5-0.5,0.5H8.7v1.8
			C8.7,16.7,8.5,16.9,8.2,16.9z M5.3,15.9h2.5v-1.8c0-0.3,0.2-0.5,0.5-0.5H10v-2.5H8.2c-0.3,0-0.5-0.2-0.5-0.5V8.9H5.3v1.8
			c0,0.3-0.2,0.5-0.5,0.5H3v2.5h1.8c0.3,0,0.5,0.2,0.5,0.5V15.9z"/>
	</g>
	<g>
		<polygon fill="#4DFFA1" points="22.5,17.4 22.5,22.3 11.2,22.3 11.2,17.4 14.4,17.4 14.4,7.6 11.2,7.6 11.2,2.7 19.3,2.7 
			19.3,17.4 		"/>
		<path fill="#3ECF82" d="M22.5,22.8H11.2c-0.3,0-0.5-0.2-0.5-0.5v-4.9c0-0.3,0.2-0.5,0.5-0.5h2.7V8.1h-2.7c-0.3,0-0.5-0.2-0.5-0.5
			V2.7c0-0.3,0.2-0.5,0.5-0.5h8.1c0.3,0,0.5,0.2,0.5,0.5v14.2h2.7c0.3,0,0.5,0.2,0.5,0.5v4.9C23,22.6,22.8,22.8,22.5,22.8z
			 M11.7,21.8H22v-3.9h-2.7c-0.3,0-0.5-0.2-0.5-0.5V3.2h-7.1v3.9h2.7c0.3,0,0.5,0.2,0.5,0.5v9.8c0,0.3-0.2,0.5-0.5,0.5h-2.7V21.8z"
			/>
	</g>
</g>
</svg>
