<svg width="109" height="121" viewBox="0 0 109 121" fill="none" xmlns="http://www.w3.org/2000/svg">
<g clip-path="url(#clip0_8_177)">
<path d="M48.56 96.62C75.1028 96.62 96.62 75.1028 96.62 48.56C96.62 22.0172 75.1028 0.5 48.56 0.5C22.0172 0.5 0.5 22.0172 0.5 48.56C0.5 75.1028 22.0172 96.62 48.56 96.62Z" fill="#FF7300"/>
<path d="M48.56 4C57.376 3.99802 65.9945 6.61058 73.3255 11.5072C80.6566 16.4039 86.3708 23.3647 89.7454 31.5092C93.12 39.6537 94.0035 48.6161 92.2841 57.2627C90.5647 65.9094 86.3196 73.8519 80.0857 80.0857C73.8519 86.3196 65.9094 90.5647 57.2627 92.2841C48.6161 94.0035 39.6537 93.12 31.5092 89.7454C23.3647 86.3708 16.4039 80.6566 11.5072 73.3255C6.61058 65.9945 3.99802 57.376 4 48.56C4.01323 36.746 8.71219 25.4197 17.0659 17.0659C25.4197 8.71219 36.746 4.01323 48.56 4V4ZM48.56 0.500001C39.0518 0.498023 29.7566 3.31585 21.85 8.59709C13.9434 13.8783 7.78057 21.3857 4.14103 30.1698C0.501482 38.9538 -0.451307 48.6199 1.40317 57.9455C3.25764 67.2711 7.83607 75.8373 14.5594 82.5606C21.2827 89.2839 29.8489 93.8624 39.1745 95.7168C48.5001 97.5713 58.1662 96.6185 66.9502 92.979C75.7343 89.3394 83.2417 83.1766 88.5229 75.27C93.8042 67.3634 96.622 58.0682 96.62 48.56C96.62 35.8137 91.5565 23.5894 82.5435 14.5764C73.5306 5.56345 61.3063 0.500001 48.56 0.500001Z" fill="black"/>
<path d="M48.5599 41.33C49.9927 41.328 51.3939 41.7512 52.586 42.546C53.7782 43.3407 54.7077 44.4714 55.2569 45.7947C55.8061 47.1181 55.9503 48.5746 55.6713 49.98C55.3923 51.3853 54.7025 52.6763 53.6894 53.6894C52.6763 54.7026 51.3853 55.3923 49.9799 55.6713C48.5746 55.9504 47.118 55.8062 45.7947 55.2569C44.4714 54.7077 43.3407 53.7782 42.5459 52.5861C41.7512 51.3939 41.328 49.9928 41.3299 48.56C41.3326 46.6433 42.0952 44.8058 43.4505 43.4505C44.8058 42.0952 46.6432 41.3326 48.5599 41.33V41.33ZM48.5599 37.83C46.4354 37.83 44.3585 38.4601 42.5921 39.6407C40.8257 40.8213 39.4491 42.4992 38.6365 44.4623C37.8239 46.4253 37.6118 48.5853 38.027 50.6689C38.4423 52.7526 39.4661 54.6662 40.9692 56.1678C42.4722 57.6695 44.3868 58.6915 46.4708 59.1048C48.5548 59.5181 50.7146 59.304 52.6769 58.4896C54.6392 57.6751 56.3159 56.297 57.4948 54.5295C58.6737 52.762 59.3019 50.6846 59.2999 48.56C59.3013 47.1497 59.0243 45.753 58.4849 44.4499C57.9455 43.1468 57.1543 41.963 56.1566 40.9662C55.1589 39.9695 53.9743 39.1794 52.6708 38.6412C51.3672 38.103 49.9702 37.8273 48.5599 37.83Z" fill="black"/>
<path d="M78.06 36.49C79.0489 36.49 80.0156 36.7832 80.8378 37.3326C81.6601 37.882 82.3009 38.6629 82.6794 39.5766C83.0578 40.4902 83.1568 41.4955 82.9639 42.4654C82.771 43.4353 82.2948 44.3263 81.5955 45.0255C80.8962 45.7248 80.0053 46.201 79.0354 46.3939C78.0655 46.5868 77.0602 46.4878 76.1466 46.1094C75.2329 45.7309 74.452 45.0901 73.9026 44.2678C73.3532 43.4456 73.06 42.4789 73.06 41.49C73.06 40.1639 73.5868 38.8921 74.5244 37.9545C75.4621 37.0168 76.7339 36.49 78.06 36.49ZM78.06 32.99C76.3848 32.99 74.7472 33.4867 73.3543 34.4174C71.9614 35.3481 70.8758 36.671 70.2347 38.2187C69.5936 39.7663 69.4259 41.4694 69.7527 43.1124C70.0795 44.7554 70.8862 46.2646 72.0708 47.4492C73.2553 48.6337 74.7645 49.4404 76.4076 49.7672C78.0506 50.0941 79.7536 49.9263 81.3013 49.2852C82.849 48.6442 84.1718 47.5586 85.1025 46.1657C86.0332 44.7728 86.53 43.1352 86.53 41.46C86.5273 39.2153 85.6338 37.0635 84.0456 35.4773C82.4575 33.891 80.3046 33 78.06 33V32.99Z" fill="black"/>
<path d="M19.49 86V114.56C19.49 115.637 19.9177 116.669 20.6791 117.431C21.4405 118.192 22.4732 118.62 23.55 118.62H71.94C72.4774 118.62 73.0095 118.513 73.5053 118.306C74.0012 118.099 74.451 117.796 74.8287 117.413C75.2063 117.031 75.5043 116.577 75.7054 116.079C75.9065 115.581 76.0066 115.047 76 114.51V86" stroke="black" stroke-width="3.5" stroke-linecap="round" stroke-linejoin="round"/>
<path d="M85.38 47.41C85.38 47.41 106.66 70.74 106.66 83.79V103.92" stroke="black" stroke-width="3.5" stroke-linecap="round" stroke-linejoin="round"/>
</g>
<defs>
<clipPath id="clip0_8_177">
<rect width="108.41" height="120.32" fill="white"/>
</clipPath>
</defs>
</svg>
