<svg id="Layer_1" data-name="Layer 1" xmlns="http://www.w3.org/2000/svg" viewBox="0 0 53.05 60.08"><path d="M22.45,12.15h0A16.65,16.65,0,0,1,39.11,28.81V49a0,0,0,0,1,0,0H5.8a0,0,0,0,1,0,0V28.81A16.65,16.65,0,0,1,22.45,12.15Z" transform="translate(7.82 -4.42) rotate(13.6)" style="fill:none;stroke:#000;stroke-linecap:round;stroke-linejoin:round;stroke-width:3.87903677523137px"/><path d="M24.22,50l-.82,3.38A6.26,6.26,0,0,1,15.83,58h0a6.27,6.27,0,0,1-4.62-7.57L12,47" style="fill:none;stroke:#000;stroke-linecap:round;stroke-linejoin:round;stroke-width:3.87903677523137px"/><circle cx="41.19" cy="11.86" r="8.92" style="fill:#ff7300;stroke:#ff7300;stroke-miterlimit:10;stroke-width:5.879034303080526px"/></svg>