<svg xmlns="http://www.w3.org/2000/svg" viewBox="0 0 147.33 147.33"><title>Asset 24 New_Orange</title><g id="Layer_2" data-name="Layer 2"><g id="Layer_2-2" data-name="Layer 2"><path d="M73.66,50.67a23,23,0,1,0,23,23A23,23,0,0,0,73.66,50.67Zm0,36a13,13,0,1,1,13-13A13,13,0,0,1,73.66,86.67Z" style="fill:#ff7300"/><path d="M134.92,114.55a16,16,0,0,0-8-6.06,15.7,15.7,0,0,0-5.11-.85,15.87,15.87,0,1,0,13.09,6.91Zm-13.09,17.09a8.14,8.14,0,0,1-8.14-8.14c0-.13,0-.25,0-.38a8.15,8.15,0,0,1,8-7.76h.1a8.13,8.13,0,0,1,7.87,6.08,7.81,7.81,0,0,1,.27,2.06A8.15,8.15,0,0,1,121.83,131.64Z"/><path d="M88.49,27a15.86,15.86,0,0,0-31.4.59A15.55,15.55,0,0,0,57,29.5a15.86,15.86,0,0,0,31.72,0A16.2,16.2,0,0,0,88.49,27ZM72.83,37.64a8.16,8.16,0,1,1,6-2.63A8.07,8.07,0,0,1,72.83,37.64Z"/><path d="M88.49,27A48.19,48.19,0,0,0,79.63,25a8.12,8.12,0,0,1-.82,10,39,39,0,1,1-19.68,2.47,38.2,38.2,0,0,1,7.93-2.25,8.12,8.12,0,0,1-1.2-9.93,47.42,47.42,0,0,0-8.77,2.26A49,49,0,1,0,88.49,27Z"/><path d="M73.66,0a73.67,73.67,0,1,0,38.78,136.27,72.79,72.79,0,0,0,7.06-5,8.15,8.15,0,0,1-5.81-7.8c0-.13,0-.25,0-.38a63.31,63.31,0,0,1-40,14.21,64,64,0,1,1,48.07-22h.1a8.13,8.13,0,0,1,7.87,6.08,74.62,74.62,0,0,0,5.22-6.89A73.64,73.64,0,0,0,73.66,0Z"/></g></g></svg>