<svg id="Layer_1" data-name="Layer 1" xmlns="http://www.w3.org/2000/svg" viewBox="0 0 64.16 34.19"><rect x="17.54" y="-12.45" width="29.07" height="59.09" rx="14.53" transform="translate(49.17 -14.99) rotate(90)" style="stroke:#000;stroke-linecap:round;stroke-linejoin:round;stroke-width:4.199999999999999px"/><path d="M37.9,12.39a3.42,3.42,0,0,0-5.48.39,4.84,4.84,0,0,0-.34.55c-.1-.18-.21-.36-.34-.55a3.43,3.43,0,0,0-5.49-.39,4.11,4.11,0,0,0-1,2.74,5,5,0,0,0,1.39,3.32,32.86,32.86,0,0,0,3.49,3c.53.45,1.08.91,1.66,1.42l0,0a.39.39,0,0,0,.26.09.41.41,0,0,0,.26-.09l0,0c.58-.51,1.13-1,1.65-1.42a31.88,31.88,0,0,0,3.49-3,5.06,5.06,0,0,0,1.4-3.32A4.12,4.12,0,0,0,37.9,12.39Z" style="fill:#ff7300"/></svg>