<svg id="Layer_1" data-name="Layer 1" xmlns="http://www.w3.org/2000/svg" viewBox="0 0 93.25 36.84"><path d="M80.88,9.8a8,8,0,0,1,8,8V28.5a6.6,6.6,0,0,1-6.6,6.6H18.5a8,8,0,0,1-7.93-6.8" style="fill:none;stroke:#000;stroke-linecap:round;stroke-linejoin:round;stroke-width:2.94225223779481px"/><path d="M10.12,2H72.5a8,8,0,0,1,8,8V21.47a5.83,5.83,0,0,1-5.83,5.83H10.12a8,8,0,0,1-8-8V10a8,8,0,0,1,8-8Z" style="fill:none;stroke:#000;stroke-linecap:round;stroke-linejoin:round;stroke-width:2.94225223779481px"/><polyline points="26.36 15.4 30.12 12.64 33.88 15.4" style="fill:none;stroke:#000;stroke-linecap:round;stroke-linejoin:round;stroke-width:2.94225223779481px"/><line x1="30.12" y1="14.02" x2="30.12" y2="20.66" style="fill:none;stroke:#000;stroke-linecap:round;stroke-linejoin:round;stroke-width:2.94225223779481px"/><polyline points="36.77 11.39 40.53 8.63 44.28 11.39" style="fill:none;stroke:#000;stroke-linecap:round;stroke-linejoin:round;stroke-width:2.94225223779481px"/><line x1="40.53" y1="10.01" x2="40.53" y2="16.65" style="fill:none;stroke:#000;stroke-linecap:round;stroke-linejoin:round;stroke-width:2.94225223779481px"/><polyline points="47.66 15.2 51.41 12.44 55.17 15.2" style="fill:none;stroke:#000;stroke-linecap:round;stroke-linejoin:round;stroke-width:2.94225223779481px"/><line x1="51.42" y1="13.82" x2="51.42" y2="20.46" style="fill:none;stroke:#000;stroke-linecap:round;stroke-linejoin:round;stroke-width:2.94225223779481px"/></svg>