<svg id="Layer_1" data-name="Layer 1" xmlns="http://www.w3.org/2000/svg" viewBox="0 0 93.25 38.8"><path d="M82,11.76a8,8,0,0,1,8,8V30.46a6.6,6.6,0,0,1-6.6,6.6H19.63a8,8,0,0,1-8-7" style="fill:none;stroke:#000;stroke-linecap:round;stroke-linejoin:round;stroke-width:2.94px"/><path d="M11.25,4H73.63a8,8,0,0,1,8,8h0V23.43a5.83,5.83,0,0,1-5.83,5.83H11.25a8,8,0,0,1-8-8V12a8,8,0,0,1,8-8Z" style="fill:none;stroke:#000;stroke-linecap:round;stroke-linejoin:round;stroke-width:2.94px"/><path d="M16.77,28.53V25.8a7.53,7.53,0,0,1,7.53-7.53h0a7.53,7.53,0,0,1,7.54,7.53v2.73" style="fill:none;stroke:#000;stroke-linecap:round;stroke-linejoin:round;stroke-width:3px"/><circle cx="24.3" cy="13.87" r="4.39" style="fill:none;stroke:#000;stroke-linecap:round;stroke-linejoin:round;stroke-width:3px"/><path d="M54.77,28.53V25.8a7.53,7.53,0,0,1,7.53-7.53h0a7.54,7.54,0,0,1,7.54,7.53v2.73" style="fill:none;stroke:#000;stroke-linecap:round;stroke-linejoin:round;stroke-width:3px"/><circle cx="62.3" cy="13.87" r="4.39" style="fill:none;stroke:#000;stroke-linecap:round;stroke-linejoin:round;stroke-width:3px"/><circle cx="35.81" cy="16.62" r="1.59"/><circle cx="43.03" cy="16.62" r="1.59"/><circle cx="50.73" cy="16.62" r="1.59"/><circle cx="79.8" cy="7.62" r="7.21" style="fill:#ff7300"/></svg>