<svg xmlns="http://www.w3.org/2000/svg" viewBox="0 0 80.35 79.91"><title>2</title><g id="Layer_2" data-name="Layer 2"><g id="Layer_2-2" data-name="Layer 2"><path d="M60.29,32.92V66.33A11.13,11.13,0,0,1,49.21,77.41H13.58A11.12,11.12,0,0,1,2.5,66.33V32.92a11.11,11.11,0,0,1,8.62-10.79,10.1,10.1,0,0,1,2.46-.29H49.21A11.12,11.12,0,0,1,60.29,32.92Z" style="fill:none;stroke:#000;stroke-miterlimit:10;stroke-width:5px"/><path d="M68.79,23.78V57.2q0,.34,0,.69A11.08,11.08,0,0,1,60.16,68a11.14,11.14,0,0,0,.13-1.65V32.92A11.12,11.12,0,0,0,49.21,21.84H13.58a10.1,10.1,0,0,0-2.46.29,11.15,11.15,0,0,1,9-9.25,10,10,0,0,1,2-.18H57.71A11.11,11.11,0,0,1,68.79,23.78Z" style="fill:none;stroke:#000;stroke-miterlimit:10;stroke-width:5px"/><path d="M77.85,13.57V47a11.12,11.12,0,0,1-9.09,10.9q0-.35,0-.69V23.78A11.11,11.11,0,0,0,57.71,12.7H22.08a10,10,0,0,0-2,.18A11.12,11.12,0,0,1,31.15,2.5H66.77A11.11,11.11,0,0,1,77.85,13.57Z" style="fill:none;stroke:#000;stroke-miterlimit:10;stroke-width:5px"/></g></g></svg>