<svg id="Layer_1" data-name="Layer 1" xmlns="http://www.w3.org/2000/svg" viewBox="0 0 91.98 37.47"><path d="M82.21,9.73a8.17,8.17,0,0,1,8.17,8.18V28.82a6.73,6.73,0,0,1-6.73,6.73H18.55a8.17,8.17,0,0,1-8.11-7.17" style="fill:none;stroke:#000;stroke-linecap:round;stroke-linejoin:round;stroke-width:3px"/><path d="M10,1.77H73.65a8.18,8.18,0,0,1,8.18,8.18V21.64a5.95,5.95,0,0,1-5.95,5.95H10a8.18,8.18,0,0,1-8.18-8.18V9.95A8.18,8.18,0,0,1,10,1.77Z" style="fill:none;stroke:#000;stroke-linecap:round;stroke-linejoin:round;stroke-width:3px"/><path d="M14.88,26.59V23.87a7.54,7.54,0,0,1,7.54-7.54h0A7.54,7.54,0,0,1,30,23.87v2.72" style="fill:none;stroke:#000;stroke-linecap:round;stroke-linejoin:round;stroke-width:3px"/><circle cx="22.42" cy="11.94" r="4.39" style="fill:none;stroke:#000;stroke-linecap:round;stroke-linejoin:round;stroke-width:3px"/><circle cx="44.7" cy="13.56" r="1.59" style="stroke:#000;stroke-linecap:round;stroke-linejoin:round;stroke-width:3px"/><circle cx="54.31" cy="13.56" r="1.59" style="stroke:#000;stroke-linecap:round;stroke-linejoin:round;stroke-width:3px"/><circle cx="64.02" cy="13.56" r="1.59" style="stroke:#000;stroke-linecap:round;stroke-linejoin:round;stroke-width:3px"/></svg>