<svg id="Layer_1" data-name="Layer 1" xmlns="http://www.w3.org/2000/svg" viewBox="0 0 64.16 34.19"><rect x="17.35" y="-12.49" width="29.07" height="59.09" rx="14.53" transform="translate(48.94 -14.83) rotate(90)" style="fill:none;stroke:#000;stroke-linecap:round;stroke-linejoin:round;stroke-width:4.199999999999999px"/><path d="M37.71,12.35a3.42,3.42,0,0,0-5.48.39,4.35,4.35,0,0,0-.34.55c-.1-.17-.21-.36-.34-.55a3.43,3.43,0,0,0-5.49-.39,4.13,4.13,0,0,0-1,2.74,5,5,0,0,0,1.39,3.32,31.74,31.74,0,0,0,3.49,3c.53.45,1.08.91,1.66,1.42v0a.4.4,0,0,0,.53,0l0,0c.58-.51,1.12-1,1.65-1.42a30.82,30.82,0,0,0,3.49-3,5.06,5.06,0,0,0,1.4-3.32A4.14,4.14,0,0,0,37.71,12.35Z" style="fill:none;stroke:#000;stroke-linecap:round;stroke-linejoin:round;stroke-width:4.199999999999999px"/></svg>