<svg xmlns="http://www.w3.org/2000/svg" viewBox="0 0 80.65 74.89"><title>message selected new</title><g id="Layer_2" data-name="Layer 2"><g id="Layer_2-2" data-name="Layer 2"><path d="M70.26,0H10.38A10.38,10.38,0,0,0,0,10.38v36A10.38,10.38,0,0,0,10.38,56.79H20.67l17,17a3.79,3.79,0,0,0,5.33,0l17-17H70.26A10.39,10.39,0,0,0,80.65,46.41v-36A10.39,10.39,0,0,0,70.26,0ZM59.63,35.21A6.25,6.25,0,1,1,65.88,29,6.26,6.26,0,0,1,59.63,35.21ZM14.77,29A6.25,6.25,0,1,1,21,35.21,6.26,6.26,0,0,1,14.77,29Zm19.31,0a6.24,6.24,0,1,1,6.24,6.24A6.26,6.26,0,0,1,34.08,29Z"/></g></g></svg>