<svg xmlns="http://www.w3.org/2000/svg" viewBox="0 0 1025.27 512.7"><g id="Layer_2" data-name="Layer 2"><g id="Layer_1-2" data-name="Layer 1"><rect x="23.5" y="23.5" width="978.27" height="465.7" rx="232.85" style="fill:none;stroke:#020202;stroke-miterlimit:10;stroke-width:47px"/><path d="M555.39,256.91c26.77,26.62,52.28,51.56,77.27,77,12.8,13,14.17,28.9,4.9,41.54-8,10.87-24.13,15.19-36.56,8.51-6.34-3.4-11.82-8.73-17-13.9-23.15-23.26-46-46.78-71.67-72.91-17.07,17.7-32.58,33.92-48.24,50-9.09,9.33-18.25,18.61-27.67,27.61-15.79,15.11-34.16,16.28-46.55,3.3-12-12.59-10.88-30.33,4-45.25,24.75-24.87,50-49.24,76.41-75.15-8.61-9.08-15.72-16.84-23.12-24.31C430,216,412.62,199,395.51,181.61c-16.34-16.55-18.16-35-5-47.75s31-10.8,47.78,5.69c20.61,20.25,41,40.78,61.45,61.14,3.92,3.9,8.08,7.56,14.49,13.51,20.33-21,39.92-41.29,59.55-61.54,4.73-4.88,9.46-9.77,14.38-14.45,15.79-15,34.43-16.68,46.71-4.33,12.46,12.53,11.07,31.43-4.05,46.78-20.67,21-41.72,41.62-62.55,62.46C564.33,247.06,560.65,251.26,555.39,256.91Z"/></g></g></svg>