<svg id="Layer_1" data-name="Layer 1" xmlns="http://www.w3.org/2000/svg" viewBox="0 0 547.66 520.6"><defs><style>.cls-1{fill:none;stroke:#010101;stroke-miterlimit:10;stroke-width:4.64px;}.cls-2,.cls-3{fill:#010101;}.cls-2{fill-rule:evenodd;}</style></defs><rect class="cls-1" x="5.24" y="3.39" width="538.27" height="512.99" rx="153.99"/><path class="cls-2" d="M273.1,201.89V232c5.95-1.19,9.52-6.24,9.76-13.4C283.14,210,278.53,202.2,273.1,201.89Zm0,0V232c5.95-1.19,9.52-6.24,9.76-13.4C283.14,210,278.53,202.2,273.1,201.89Zm110.06,26.54a23.39,23.39,0,0,0-9.07-13.34q-43.89-31.9-87.89-63.68c-6.56-4.74-17.59-4.75-24.13,0q-44,32-87.88,64.14c-7.25,5.32-10.66,16.63-7.89,25.12q4.8,14.81,9.61,29.6,11.64,36,23.25,72a23.93,23.93,0,0,0,23.05,16.77h51.87q27,0,54.09,0a13.48,13.48,0,0,0,5.77-.85c7.06-3.25,12.46-8.14,14.91-15.7q17.08-52.93,34.09-105.88a14.38,14.38,0,0,0,.22-8.22Zm-90.28-10.25h0c0-7.25.06-14.5,0-21.79,0-1.62.43-2,1.89-1.69q8.12,1.74,16.25,3.44c.41.08.94.13,1,.57.1,2.45.24,4.92.12,7.36-.05.91-1.08.45-1.64.35-2.25-.38-4.49-.82-6.73-1.26-1.6-.31-2.73-.18-2.41,2a23.21,23.21,0,0,1,0,3.44c0,4.34,0,4.34,4.37,4.83s4.49.49,4.49,5c0,3.88,0,3.88-3.76,3.46-5.1-.58-5.1-.58-5.1,4.7v1c.14,6.19-1.07,4.63,5,5.5s6.21.66,6.35,6.9c.07,3.57.06,3.62-3.28,3-5-.88-9.93-1.89-14.91-2.72-1.34-.23-1.66-.82-1.64-2.11C292.91,232.81,292.88,225.68,292.88,218.18Zm-61,12.18c0-9.58.07-19.16,0-28.76,0-1.4.22-2.23,1.87-2.53a42.79,42.79,0,0,0,6.3-1.85c1.37-.48,1.87-.11,2.42,1.26,3,7.31,5.24,14.85,7.72,22.32.13.39.14.8.7,1,.59-.45.31-1.14.3-1.7-.13-7.77.15-15.57-.46-23.34-.15-2,.55-2.76,2.43-3a32.72,32.72,0,0,0,4.78-1c1.69-.47,2.17-.05,2.15,1.78-.09,9.67,0,19.34,0,29,0,5.32-.06,10.65.1,16,0,1.63-.56,2.13-1.93,2.33-2.26.36-4.51.72-6.74,1.17-1.39.28-2-.3-2.51-1.56-2.51-5.89-5.13-11.74-7.7-17.61-.69,6.52,0,13,.05,19.43,0,1.81-.57,2.62-2.29,3-2.33.58-4.6,1.38-7.19,2.13Zm-21.82,25.37c-4.83-.68-7.85-4.19-8.61-10.42-1.12-9.14-.15-18.32-.44-27.48a2.14,2.14,0,0,1,1-1.81,61.46,61.46,0,0,1,8.09-5.72v11.34c0,5.81,0,11.62.07,17.43,0,3.36,1.15,5.18,3.06,5.48s3.79-1.17,4.76-4.4c1.61-5.41,1.2-11,1.46-16.56.26-5.23.13-10.49.06-15.72a2.57,2.57,0,0,1,1.56-2.7c2-1,3.91-2,5.83-3.07,1.09-.59,1.41-.3,1.4.89-.09,9-.06,18-.24,27-.1,4.73,0,9.49-1.13,14.15-1.7,7-9.85,12.57-16.91,11.58Zm60.21,56.19c1.74-.31,2.45-.15,2.32,2-.29,4.4-.26,8.84-.3,13.26,0,1.26-.26,1.84-1.74,2-12,1.13-23.94,2.22-35.85,3.88-2.83.39-5.65.85-8.46,1.33-3.15.54-4-.21-4.13-3.32a30.4,30.4,0,0,1,9.47-23.56c5.89-5.81,12.5-10.88,17.85-17.24a43.75,43.75,0,0,0,6.37-9.25c1.95-4.13,1.77-8-.45-10.07-2.41-2.27-6.66-2.46-10.56-.43s-6.54,5.4-9.59,8.35c-1.46,1.43-2.84,3.92-4.37,4s-3.12-2.28-4.66-3.58-3.09-2.69-4.66-4c-.66-.55-1.28-1-.52-2,6.55-8.64,13.58-16.75,24.76-19.32,7.43-1.71,14.71-1.17,20.81,4.14,6.8,5.93,8.54,15.67,4.56,25-3,7.13-8,12.95-13.64,18.09-5.52,5-11.26,9.75-16.89,14.63-.59.52-1.39.9-1.6,1.79,10.44-1.87,20.87-3.72,31.29-5.63Zm.39-70.94c-6.64.44-6.66.38-6.68-6.14,0-6.22,0-12.27,0-18.73h0c0-7.25,0-14.85,0-22.3,0-1.56.35-2.12,2-2.07,3.43.08,6.86-.14,10.24.74,7.07,1.81,11.33,6.55,13.3,13.34a36.7,36.7,0,0,1-.45,21.71c-2.74,8.55-8.71,12.81-18.35,13.45Zm53.82,84.32c-4.57,5.05-10.28,7.3-16.88,7.72-8,.52-15.8-1-23.65-2.2-1.81-.26-4.4.18-5.25-1.2s-.33-3.79-.38-5.74c0-1,0-2,0-2.95,0-2.22.12-4.44,0-6.64-.12-1.79.47-2.25,2.18-1.89,6.7,1.42,13.42,2.76,20.13,4.11,1,.2,1.94.29,2.91.44,4.11.65,6.91-.48,8.61-3.5a8.91,8.91,0,0,0-1-10.07c-2.91-3.47-7-4.66-11.25-5.24-6.23-.86-12.47-1.65-18.72-2.29-1.67-.17-2-.81-1.93-2.28.17-12.53.32-25.07.33-37.61,0-2.07,1.1-1.76,2.29-1.6,8.26,1.06,16.53,2,24.7,3.68q9.33,1.92,18.72,3.63c1.48.28,2.23.74,2.15,2.48-.18,3.6-.18,7.21,0,10.81.12,2.17-.8,2.24-2.42,1.89-7.09-1.52-14.18-3-21.29-4.49-3.19-.65-6.42-1.13-9.63-1.72-1.29-.23-2,0-1.93,1.57.12,3.52.15,7.05.09,10.57,0,1.58.6,2,2.09,2.19,6.06.77,12.19,1.17,18.13,2.79,17.23,4.73,21.73,26.8,12,37.55Zm13.4-72c-1.12-.23-1.55-1.1-2-2a145.86,145.86,0,0,0-7.76-13c-.63-.93-1.42-1.76-2.49-3.08a72.83,72.83,0,0,0,.13,12.15c.26,2.44-.52,2.59-2.59,2-6.81-1.92-6.83-1.85-6.94-8.84-.19-13-.33-26-.59-39-.05-2,.33-2.59,2.33-1.77,5,2.08,10.14,3.89,15.07,6.22,10.24,4.79,10.84,19.19,2.3,24.62-1.31.83-.93,1.46-.26,2.47,4.56,6.87,8,14.33,11.8,22.22-3.31-.73-6.14-1.37-9-2ZM326,211.58c-.72-.08-1,.12-1,.9.15,4.09.26,8.18.39,12.28,0,.48,0,.92.74,1,3,.26,7.17-3.64,7.09-6.67s-4.1-7.15-7.22-7.47Zm-52.94-9.69V232c5.95-1.19,9.52-6.24,9.76-13.4C283.14,210,278.53,202.2,273.1,201.89Zm0,0V232c5.95-1.19,9.52-6.24,9.76-13.4C283.14,210,278.53,202.2,273.1,201.89Zm0,0V232c5.95-1.19,9.52-6.24,9.76-13.4C283.14,210,278.53,202.2,273.1,201.89Z"/><path class="cls-2" d="M319.17,146.71h20.16c9.21,0,20.1,7.44,23,16.12,4.57,13.54,8.9,27.16,13.33,40.75.28.85.72,1.77-.28,2.42s-1.68-.12-2.4-.64l-76.56-55.47c-.77-.57-1.83-1-1.43-2.27s1.6-.9,2.51-.9C304.75,146.7,312,146.71,319.17,146.71Z"/><path class="cls-2" d="M403.27,293.18c-.17,9.71-2.83,16.31-10,21.17-11.22,7.64-22,15.86-33.06,23.8-.77.57-1.55,1.79-2.74,1s-.46-2.07-.12-3.1q14.31-44.13,28.65-88.25c.31-.94.31-2.33,1.8-2.26s1.42,1.38,1.73,2.34q6.09,18.63,12.16,37.24A27.22,27.22,0,0,1,403.27,293.18Z"/><path class="cls-2" d="M252.31,147.76c.09,1.37-1,1.71-1.75,2.26Q221.1,171.5,191.62,193l-15.48,11.28c-.78.57-1.55,1.45-2.61.75s-.51-1.73-.2-2.66c4.24-13.05,8.21-26.19,12.78-39.1,3.27-9.24,11.07-13.56,20-16.07a16.54,16.54,0,0,1,4.37-.52q19.68-.06,39.33,0C250.84,146.62,252.06,146.32,252.31,147.76Z"/><path class="cls-2" d="M274.31,366.82h45.24c.88,0,1.92-.16,2.31.92s-.5,1.61-1.23,2.14c-2.11,1.56-4.24,3.08-6.36,4.62-8.21,5.95-16.54,11.78-24.6,17.94-7.35,5.61-23.31,6.21-31.22-.07-9.61-7.62-19.79-14.53-29.72-21.75a12.3,12.3,0,0,1-1.76-1.33c-1-1-.56-2.2.88-2.42a12.84,12.84,0,0,1,2-.05Z"/><path class="cls-2" d="M160,247.69c1.19,0,1.35,1.1,1.64,2q4,12.46,8.08,24.94,9.77,30.06,19.51,60.11c.34,1,1.22,2.23-.1,3.1-1.14.75-2-.34-2.8-.94q-15.3-11.1-30.57-22.24c-7.71-5.63-12.31-18.53-9.5-27.71,3.85-12.57,8-25,12.11-37.55C158.65,248.65,158.87,247.79,160,247.69Z"/><path class="cls-2" d="M333.28,219.09c.08,3-4.1,6.92-7.09,6.67-.73-.07-.72-.5-.74-1-.13-4.09-.24-8.18-.39-12.27,0-.78.26-1,1-.9C329.17,211.92,333.2,216.09,333.28,219.09Z"/><path class="cls-2" d="M282.86,218.61c-.24,7.16-3.81,12.21-9.76,13.4V201.89C278.53,202.2,283.14,210,282.86,218.61Z"/><path class="cls-2" d="M333.28,219.09c.08,3-4.1,6.92-7.09,6.67-.73-.07-.72-.5-.74-1-.13-4.09-.24-8.18-.39-12.27,0-.78.26-1,1-.9C329.17,211.92,333.2,216.09,333.28,219.09Z"/><path class="cls-2" d="M282.86,218.61c-.24,7.16-3.81,12.21-9.76,13.4V201.89C278.53,202.2,283.14,210,282.86,218.61Z"/><path class="cls-3" d="M374.61,143.6h-4.14v13h-3.89v-13h-4.4V140h12.43Z"/><path class="cls-3" d="M393,156.55h-3.89V147l-4.32,7h-.42l-4.32-7v9.59h-3.63V140h3.79l4.5,7.37,4.5-7.37H393Z"/></svg>