<svg xmlns="http://www.w3.org/2000/svg" viewBox="0 0 89.95 36.15"><g id="Layer_2" data-name="Layer 2"><g id="Layer_1-2" data-name="Layer 1"><g id="surface1"><path d="M80.48,9.28a8,8,0,0,1,8,8.1v10.7a6.59,6.59,0,0,1-6.6,6.6h-64a8.07,8.07,0,0,1-8-6.8" style="fill:none;stroke:#fff;stroke-linecap:round;stroke-linejoin:round;stroke-width:2.9523000717163086px"/><path d="M9.48,1.48h62.6a8,8,0,0,1,8,8h0v11.6a5.89,5.89,0,0,1-5.8,5.9H9.48a8,8,0,0,1-8-8V9.58a8,8,0,0,1,8-8.1Z" style="fill:none;stroke:#fff;stroke-linecap:round;stroke-linejoin:round;stroke-width:2.9523000717163086px"/><path d="M38.48,14.68h5.9a1.5,1.5,0,0,1,0,3h-5.9a1.5,1.5,0,0,1,0-3Z" style="fill:none;stroke:#fff;stroke-linecap:round;stroke-linejoin:round;stroke-width:1.7422000169754028px"/><path d="M41.38,17.58v5" style="fill:none;stroke:#fff;stroke-linecap:round;stroke-linejoin:round;stroke-width:1.7422000169754028px"/><path d="M38.38,14.28l1.2-6.2h3.5l1.6,6.6" style="fill:none;stroke:#fff;stroke-linecap:round;stroke-linejoin:round;stroke-width:1.7422000169754028px"/><path d="M39.28,5.48h4.3a1.1,1.1,0,1,1,0,2.2h-4.3a1.1,1.1,0,0,1,0-2.2Z" style="fill:none;stroke:#fff;stroke-linecap:round;stroke-linejoin:round;stroke-width:1.7422000169754028px"/></g></g></g></svg>