<svg xmlns="http://www.w3.org/2000/svg" viewBox="0 0 63.29 33.27"><g id="Layer_2" data-name="Layer 2"><g id="Layer_1-2" data-name="Layer 1"><rect x="2.1" y="2.1" width="59.09" height="29.07" rx="14.53" style="fill:#001eff;stroke:#001eff;stroke-linecap:round;stroke-linejoin:round;stroke-width:4.199999809265137px"/><path d="M41.13,14.47a2.05,2.05,0,0,0-.79-1.16L32.73,7.8a1.93,1.93,0,0,0-2.09,0Q26.83,10.55,23,13.35a2.1,2.1,0,0,0-.68,2.19c.28.85.56,1.7.83,2.56.67,2.08,1.34,4.15,2,6.23a2.07,2.07,0,0,0,2,1.45h9.17a1,1,0,0,0,.5-.08,2.24,2.24,0,0,0,1.3-1.36q1.47-4.57,3-9.16A1.32,1.32,0,0,0,41.13,14.47Z" style="fill:#ff7300;stroke:#ff7300;stroke-linecap:round;stroke-linejoin:round;stroke-width:4.199999809265137px;fill-rule:evenodd"/></g></g></svg>