<svg xmlns="http://www.w3.org/2000/svg" xmlns:xlink="http://www.w3.org/1999/xlink" viewBox="0 0 89.74 38.07"><defs><clipPath id="clip-path"><path d="M50.77,14.1A1.55,1.55,0,0,0,50,13l-7.5-5.5a2,2,0,0,0-2.1,0c-2.5,1.8-5,3.7-7.5,5.5a2.14,2.14,0,0,0-.7,2.1c.3.9.5,1.7.8,2.5.7,2.1,1.3,4.1,2,6.2a1.93,1.93,0,0,0,2,1.4h9.1a.9.9,0,0,0,.5-.1,2.1,2.1,0,0,0,1.3-1.3c1-3,2-6.1,2.9-9.1A.63.63,0,0,0,50.77,14.1Z" style="fill:none"/></clipPath></defs><g id="Layer_2" data-name="Layer 2"><g id="Layer_1-2" data-name="Layer 1"><path d="M80.27,11.3a8,8,0,0,1,8,8V30a6.59,6.59,0,0,1-6.6,6.6H17.87a8,8,0,0,1-8-7" style="fill:none;stroke:#fff;stroke-linecap:round;stroke-linejoin:round;stroke-width:2.940000057220459px"/><path d="M9.47,3.5h62.4a8,8,0,0,1,8,8h0V23a5.8,5.8,0,0,1-5.8,5.8H9.47a8,8,0,0,1-8-8V11.5A8,8,0,0,1,9.47,3.5Z" style="fill:none;stroke:#fff;stroke-linecap:round;stroke-linejoin:round;stroke-width:2.940000057220459px"/><path d="M50,14.2a1.83,1.83,0,0,0-.7-1c-2.3-1.7-4.6-3.3-6.8-5a1.65,1.65,0,0,0-1.9,0l-6.8,5a1.76,1.76,0,0,0-.6,1.9c.2.8.5,1.5.7,2.3.6,1.9,1.2,3.7,1.8,5.6a1.83,1.83,0,0,0,1.8,1.3h8.2a.9.9,0,0,0,.5-.1,2,2,0,0,0,1.2-1.2c.9-2.8,1.8-5.5,2.7-8.2A1.49,1.49,0,0,0,50,14.2Z" style="fill:#fff;stroke:#fff;stroke-linecap:round;stroke-linejoin:round;stroke-width:1.3791999816894531px;fill-rule:evenodd"/><g style="clip-path:url(#clip-path)"><path d="M48.27,21.8a49.79,49.79,0,0,1-8-4,56,56,0,0,1-7.6-5.1" style="fill:none;stroke:#fff;stroke-linecap:round;stroke-linejoin:round;stroke-width:1.3791999816894531px"/></g><ellipse cx="41.59" cy="16.35" rx="2.3" ry="13.6" transform="translate(6.64 44.19) rotate(-60)" style="fill:none;stroke:#fff;stroke-linecap:round;stroke-linejoin:round;stroke-width:1.379169634969297px"/><circle cx="78.07" cy="7.2" r="7.2" style="fill:#ff7300"/></g></g></svg>