<svg xmlns="http://www.w3.org/2000/svg" viewBox="0 0 63.2 33.2"><g id="Layer_2" data-name="Layer 2"><g id="Layer_1-2" data-name="Layer 1"><path d="M61.1,16.6h0A14.51,14.51,0,0,1,46.6,31.1h-30A14.51,14.51,0,0,1,2.1,16.6h0A14.51,14.51,0,0,1,16.6,2.1h30A14.51,14.51,0,0,1,61.1,16.6Z" style="fill:none;stroke:#fff;stroke-linecap:round;stroke-linejoin:round;stroke-width:4.199999809265137px"/><path d="M42.6,15.3c0,4.8-2.4,6.7-4.8,6.7s-3.4-.9-3.7-2.3a3.7,3.7,0,0,1-3.8,2.2c-2.7,0-4.8-1.9-4.8-5.2s2-5.2,4.8-5.2a3.89,3.89,0,0,1,3.2,1.3v-1h1.7a1.09,1.09,0,0,1,1.1.9h0v5.1a1.59,1.59,0,0,0,1.4,1.8h.2c.9,0,1.9-1.3,1.9-4.1,0-4.9-3.5-6.7-8-6.7-5,0-8.2,2.8-8.2,7.9,0,4.9,3.2,7.9,8.5,7.9a12.09,12.09,0,0,0,3.8-.6,1.47,1.47,0,0,1,1.9.7.6.6,0,0,1,.1.4h0a1.21,1.21,0,0,1-.8,1.1,16.32,16.32,0,0,1-4.9.9c-6.8,0-11.4-4-11.4-10.5s4.5-10.4,11-10.4C37.8,6.2,42.6,9.4,42.6,15.3ZM32.4,16.7a2.16,2.16,0,1,0-4.3-.3v.3A2,2,0,0,0,29.8,19h.5a2,2,0,0,0,2.2-1.9A.6.6,0,0,1,32.4,16.7Z" style="fill:#fff"/></g></g></svg>