<svg xmlns="http://www.w3.org/2000/svg" viewBox="0 0 63.2 33.2"><g id="Layer_2" data-name="Layer 2"><g id="Layer_1-2" data-name="Layer 1"><path d="M61.1,16.6h0A14.51,14.51,0,0,1,46.6,31.1h-30A14.51,14.51,0,0,1,2.1,16.6h0A14.51,14.51,0,0,1,16.6,2.1h30A14.38,14.38,0,0,1,61.1,16.6Z" style="fill:none;stroke:#fff;stroke-linecap:round;stroke-linejoin:round;stroke-width:4.199999809265137px"/><path d="M37.4,11.9a3.45,3.45,0,0,0-4.8-.4,2.7,2.7,0,0,0-.7.8l-.3.6-.3-.6a3.3,3.3,0,0,0-4.7-1,5,5,0,0,0-.8.7,3.94,3.94,0,0,0-1,2.7A4.71,4.71,0,0,0,26.2,18a32.69,32.69,0,0,0,3.5,3c.5.5,1.1.9,1.7,1.4h0a.45.45,0,0,0,.5,0h0A21,21,0,0,1,33.6,21a32.69,32.69,0,0,0,3.5-3,4.71,4.71,0,0,0,1.4-3.3A4.41,4.41,0,0,0,37.4,11.9Z" style="fill:none;stroke:#fff;stroke-linecap:round;stroke-linejoin:round;stroke-width:4.199999809265137px"/></g></g></svg>