<svg xmlns="http://www.w3.org/2000/svg" xmlns:xlink="http://www.w3.org/1999/xlink" viewBox="0 0 66.25 35.15"><defs><clipPath id="clip-path"><path d="M63.3,15.6h0A15.62,15.62,0,0,1,47.7,31.2H15.6A15.62,15.62,0,0,1,0,15.6H0A15.62,15.62,0,0,1,15.6,0H47.8A15.53,15.53,0,0,1,63.3,15.6Z" style="fill:none"/></clipPath></defs><g id="Layer_2" data-name="Layer 2"><g id="Layer_1-2" data-name="Layer 1"><path d="M63.3,15.6h0A15.62,15.62,0,0,1,47.7,31.2H15.6A15.62,15.62,0,0,1,0,15.6H0A15.62,15.62,0,0,1,15.6,0H47.8A15.53,15.53,0,0,1,63.3,15.6Z"/><circle cx="16.3" cy="10.3" r="4.1" style="fill:none;stroke:#fff;stroke-linecap:round;stroke-linejoin:round;stroke-width:4.5px"/><g style="clip-path:url(#clip-path)"><path d="M18.9,32.9,35.1,18a8.49,8.49,0,0,1,7.8-1.9L64,22.5" style="fill:none;stroke:#fff;stroke-linecap:round;stroke-linejoin:round;stroke-width:4.5px"/></g></g></g></svg>