<svg xmlns="http://www.w3.org/2000/svg" viewBox="0 0 91.6 36.7"><g id="Layer_2" data-name="Layer 2"><g id="Layer_1-2" data-name="Layer 1"><path d="M81.9,9.4a8.17,8.17,0,0,1,8.2,8.2h0V28.5a6.7,6.7,0,0,1-6.7,6.7H18.2A8.2,8.2,0,0,1,10.1,28" style="fill:none;stroke:#fff;stroke-linecap:round;stroke-linejoin:round;stroke-width:3px"/><path d="M9.7,1.5H73.4a8.15,8.15,0,0,1,8.2,8.1V21.3a6.06,6.06,0,0,1-5.9,6H9.7a8.24,8.24,0,0,1-8.2-8.2V9.6A8.09,8.09,0,0,1,9.7,1.5Z" style="fill:none;stroke:#fff;stroke-linecap:round;stroke-linejoin:round;stroke-width:3px"/></g></g></svg>