<svg xmlns="http://www.w3.org/2000/svg" viewBox="0 0 92.5 34.9"><g id="Layer_2" data-name="Layer 2"><g id="Layer_1-2" data-name="Layer 1"><path d="M86.8,7.9a9.86,9.86,0,0,1,.3,2.4V22.8a6.44,6.44,0,0,1-6.4,6.4H10.3a8.15,8.15,0,0,1-3.1-.6,8.91,8.91,0,0,0,8.5,6.3H83.6A8.92,8.92,0,0,0,92.5,26h0V16.1A9,9,0,0,0,86.8,7.9Z" style="fill:#ff7300"/><path d="M10.3,1.5H78.5a8.81,8.81,0,0,1,8.8,8.8h0V22.8a6.44,6.44,0,0,1-6.4,6.4H10.3a8.81,8.81,0,0,1-8.8-8.8V10.3A8.88,8.88,0,0,1,10.3,1.5Z" style="stroke:#fff;stroke-linecap:round;stroke-linejoin:round;stroke-width:3px"/><line x1="67.1" y1="10.7" x2="67.1" y2="19.7" style="fill:none;stroke:#fff;stroke-linecap:round;stroke-linejoin:round;stroke-width:3px"/><line x1="71.6" y1="15.2" x2="62.6" y2="15.2" style="fill:none;stroke:#fff;stroke-linecap:round;stroke-linejoin:round;stroke-width:3px"/><path d="M22.4,16h2.2a4.21,4.21,0,0,1-4.4,3.9c-2.1,0-4.4-1.2-4.4-4.7s2.3-4.7,4.4-4.7a4.21,4.21,0,0,1,4.4,3.9H22.4a2.14,2.14,0,0,0-2.2-2.1c-1.5,0-2.3,1.1-2.3,2.9s.8,2.9,2.3,2.9A2.2,2.2,0,0,0,22.4,16Z" style="fill:#fff"/><path d="M32.1,18H28.3l-.6,1.6H25.5l3.4-9h2.5l3.4,9H32.6Zm-.7-1.8-1.3-3.6-1.2,3.6Z" style="fill:#fff"/><path d="M41,16.5H38.5v3.1H36.4v-9h4.7c2,0,3.2,1.1,3.2,2.9a1.79,1.79,0,0,1-1.5,2,1.59,1.59,0,0,1,1.4,1.8v.1a16.2,16.2,0,0,0,.1,2.2H42.1a12.1,12.1,0,0,1-.1-1.9,1,1,0,0,0-.7-1.2C41.2,16.6,41.1,16.5,41,16.5Zm-2.4-1.8h2.5a1,1,0,0,0,1.1-.9v-.2a1,1,0,0,0-.9-1.1H38.6Z" style="fill:#fff"/><path d="M54.1,15.2c0,3.8-2.4,4.5-4.7,4.5H46v-9h3.4C51.8,10.7,54.1,11.4,54.1,15.2Zm-2.1,0c0-2.3-1.2-2.7-2.7-2.7H48.2v5.3h1.1C50.8,17.9,52,17.5,52,15.2Z" style="fill:#fff"/></g></g></svg>