<svg xmlns="http://www.w3.org/2000/svg" viewBox="0 0 89.74 37.87"><g id="Layer_2" data-name="Layer 2"><g id="Layer_1-2" data-name="Layer 1"><path d="M80.27,11.1a8,8,0,0,1,8,8h0V29.8a6.66,6.66,0,0,1-6.6,6.6H17.87a8,8,0,0,1-7.9-7" style="fill:none;stroke:#fff;stroke-linecap:round;stroke-linejoin:round;stroke-width:2.940000057220459px"/><path d="M9.47,3.3h62.4a8,8,0,0,1,8,8h0V22.8a5.8,5.8,0,0,1-5.8,5.8H9.47a8,8,0,0,1-8-8V11.3a8,8,0,0,1,8-8Z" style="fill:none;stroke:#fff;stroke-linecap:round;stroke-linejoin:round;stroke-width:2.940000057220459px"/><circle cx="41.97" cy="15.8" r="2" style="fill:#fff"/><circle cx="50.97" cy="15.8" r="2" style="fill:#fff"/><circle cx="60.67" cy="15.8" r="2" style="fill:#fff"/><path d="M32.77,15.8s-3.6,4.4-8,4.4S17,15.8,17,15.8s3.5-4.4,7.8-4.4S32.77,15.8,32.77,15.8Z" style="fill:none;stroke:#fff;stroke-linecap:round;stroke-linejoin:round;stroke-width:2.4863998889923096px"/><circle cx="26.67" cy="15.8" r="2.6" style="fill:none;stroke:#fff;stroke-linecap:round;stroke-linejoin:round;stroke-width:2.4863998889923096px"/><circle cx="78.07" cy="7.2" r="7.2" style="fill:#ff7300"/></g></g></svg>