<svg xmlns="http://www.w3.org/2000/svg" viewBox="0 0 60.95 32.05"><g id="Layer_2" data-name="Layer 2"><g id="Layer_1-2" data-name="Layer 1"><path d="M58.92,16h0a14,14,0,0,1-14,14H16A14,14,0,0,1,2,16H2A14,14,0,0,1,16,2H44.92A14,14,0,0,1,58.92,16Z" style="fill:#ddd;stroke:#ddd;stroke-linecap:round;stroke-linejoin:round;stroke-width:4.050000190734863px"/><path d="M20.42,16.13,27,9.53a4.45,4.45,0,0,1,6.4,0h0a4.46,4.46,0,0,1,0,6.39h0l-6.61,6.61a4.49,4.49,0,0,1-6.4,0h0A4.47,4.47,0,0,1,20.42,16.13Z" style="fill:#fff"/><path d="M40.53,16.13l-6.6-6.6a4.45,4.45,0,0,0-6.4,0h0a4.46,4.46,0,0,0,0,6.39h0l6.6,6.61a4.49,4.49,0,0,0,6.4,0h0A4.65,4.65,0,0,0,40.53,16.13Z" style="fill:#fff"/></g></g></svg>