<svg xmlns="http://www.w3.org/2000/svg" viewBox="0 0 51.66 50.13"><g id="Layer_2" data-name="Layer 2"><g id="Layer_1-2" data-name="Layer 1"><path d="M49.55,19.49a5,5,0,0,0-2-2.9c-6.4-4.7-12.8-9.3-19.2-13.9a5.06,5.06,0,0,0-5.3,0c-6.4,4.7-12.8,9.3-19.2,14a5.22,5.22,0,0,0-1.7,5.5c.7,2.2,1.4,4.3,2.1,6.5,1.7,5.2,3.4,10.5,5.1,15.8a5.25,5.25,0,0,0,5,3.7h23.2a3,3,0,0,0,1.3-.2,5.83,5.83,0,0,0,3.3-3.4c2.5-7.7,5-15.4,7.5-23.2A4,4,0,0,0,49.55,19.49Z" style="fill:none;stroke:#fff;stroke-linecap:round;stroke-linejoin:round;stroke-width:3.878999948501587px"/></g></g></svg>