<svg id="Layer_1" data-name="Layer 1" xmlns="http://www.w3.org/2000/svg" viewBox="0 0 90.99 38.8"><path d="M80.87,11.63a8,8,0,0,1,8,8V30.33a6.6,6.6,0,0,1-6.6,6.6H18.49a8,8,0,0,1-7.95-7" style="fill:none;stroke:#000;stroke-linecap:round;stroke-linejoin:round;stroke-width:2.94px"/><path d="M10.11,3.83H72.49a8,8,0,0,1,8,8h0V23.3a5.83,5.83,0,0,1-5.83,5.83H10.11a8,8,0,0,1-8-8V11.84a8,8,0,0,1,8-8Z" style="fill:none;stroke:#000;stroke-linecap:round;stroke-linejoin:round;stroke-width:2.94px"/><circle cx="42.56" cy="16.27" r="2"/><circle cx="51.64" cy="16.27" r="2"/><circle cx="61.35" cy="16.27" r="2"/><path d="M33.44,16.27s-3.6,4.43-8,4.43-7.84-4.43-7.84-4.43,3.47-4.42,7.84-4.42S33.44,16.27,33.44,16.27Z" style="fill:none;stroke:#000;stroke-linecap:round;stroke-linejoin:round;stroke-width:2.48640487670898px"/><circle cx="27.28" cy="16.27" r="2.62" style="fill:none;stroke:#000;stroke-linecap:round;stroke-linejoin:round;stroke-width:2.48640487670898px"/><circle cx="78.69" cy="7.68" r="7.21" style="fill:#ff7300"/></svg>