<svg id="Layer_1" data-name="Layer 1" xmlns="http://www.w3.org/2000/svg" xmlns:xlink="http://www.w3.org/1999/xlink" viewBox="0 0 90.99 38.8"><defs><clipPath id="clip-path"><path d="M51.41,14.58a2,2,0,0,0-.78-1.14L43.1,8A1.92,1.92,0,0,0,41,8q-3.78,2.75-7.53,5.5a2,2,0,0,0-.68,2.15c.27.85.55,1.7.82,2.54.67,2.06,1.33,4.12,2,6.17a2,2,0,0,0,2,1.44H46.7a1.19,1.19,0,0,0,.49-.07,2.23,2.23,0,0,0,1.28-1.34q1.47-4.55,2.92-9.08A1.32,1.32,0,0,0,51.41,14.58Z" style="fill:none"/></clipPath></defs><path d="M80.87,11.82a8,8,0,0,1,8,8V30.52a6.59,6.59,0,0,1-6.6,6.6H18.49a8,8,0,0,1-8-7" style="fill:none;stroke:#000;stroke-linecap:round;stroke-linejoin:round;stroke-width:2.94px"/><path d="M10.11,4H72.49a8,8,0,0,1,8,8h0V23.49a5.83,5.83,0,0,1-5.83,5.83H10.11a8,8,0,0,1-8-8V12a8,8,0,0,1,8-8Z" style="fill:none;stroke:#000;stroke-linecap:round;stroke-linejoin:round;stroke-width:2.94px"/><path d="M50.63,14.73a1.85,1.85,0,0,0-.71-1q-3.41-2.49-6.84-5a1.73,1.73,0,0,0-1.87,0l-6.84,5a1.85,1.85,0,0,0-.61,1.95c.25.77.5,1.54.74,2.3q.91,2.81,1.81,5.61a1.87,1.87,0,0,0,1.8,1.3h8.24a1.14,1.14,0,0,0,.45-.06A2,2,0,0,0,48,23.61c.89-2.75,1.77-5.49,2.65-8.24A1.16,1.16,0,0,0,50.63,14.73Z" style="stroke:#000;stroke-linecap:round;stroke-linejoin:round;stroke-width:1.37921310424805px;fill-rule:evenodd"/><g style="clip-path:url(#clip-path)"><path d="M48.88,22.31a62.49,62.49,0,0,1-8-3.95,60.76,60.76,0,0,1-7.61-5.1" style="fill:none;stroke:#fff;stroke-linecap:round;stroke-linejoin:round;stroke-width:1.37921310424805px"/></g><ellipse cx="42.17" cy="16.85" rx="2.35" ry="13.62" transform="translate(6.49 44.95) rotate(-60)" style="fill:none;stroke:#000;stroke-linecap:round;stroke-linejoin:round;stroke-width:1.37921308568222px"/><circle cx="78.68" cy="7.68" r="7.21" style="fill:#ff7300"/></svg>