<svg id="Layer_1" data-name="Layer 1" xmlns="http://www.w3.org/2000/svg" viewBox="0 0 50 50"><path d="M19.94,34.37a4.34,4.34,0,0,0,1.56,1.42,6.7,6.7,0,0,0,3.17.69,5.69,5.69,0,0,0,5.08-2.59c.11-.17.21-.34.31-.51H19.42A5.59,5.59,0,0,0,19.94,34.37Z" style="fill:#b7b7b7"/><path d="M25,1.35A23.65,23.65,0,1,0,48.65,25,23.65,23.65,0,0,0,25,1.35ZM12,28a2.15,2.15,0,0,1-1.88-1.12A2.12,2.12,0,0,1,11,24l5-2.66-4.88-2.23a2.12,2.12,0,0,1,1.76-3.85l8.77,4a2.13,2.13,0,0,1,1.24,1.86,2.1,2.1,0,0,1-1.13,1.93L13,27.74A2.11,2.11,0,0,1,12,28Zm23.11,3.58a12.45,12.45,0,0,1-1.77,4.5,9.94,9.94,0,0,1-3.21,3.18,10.36,10.36,0,0,1-5.49,1.46,10.67,10.67,0,0,1-5.33-1.28,8.59,8.59,0,0,1-3.05-2.91,9.8,9.8,0,0,1-1.45-4.21l.27,0a2.08,2.08,0,0,1-.27-1A2.11,2.11,0,0,1,17,29.15H33a2.11,2.11,0,0,1,2.1,2.42Zm4.71-4.7A2.13,2.13,0,0,1,38,28a2.11,2.11,0,0,1-1-.25l-8.76-4.66a2.1,2.1,0,0,1-1.13-1.93,2.13,2.13,0,0,1,1.24-1.86l8.77-4a2.12,2.12,0,0,1,1.76,3.85L34,21.35,39,24A2.12,2.12,0,0,1,39.85,26.87Z" style="fill:#b7b7b7"/></svg>