<svg id="Layer_1" data-name="Layer 1" xmlns="http://www.w3.org/2000/svg" viewBox="0 0 93.25 36.84"><g id="surface1"><path d="M82.13,9.64a8.05,8.05,0,0,1,8,8.06V28.44a6.63,6.63,0,0,1-6.62,6.64h-64a8.05,8.05,0,0,1-8-6.84" style="fill:none;stroke:#000;stroke-linecap:round;stroke-linejoin:round;stroke-width:2.95234772108495px"/><path d="M11.12,1.8h62.6a8,8,0,0,1,8,8V21.37a5.85,5.85,0,0,1-5.85,5.86H11.12a8,8,0,0,1-8-8V9.85A8,8,0,0,1,11.12,1.8Z" style="fill:none;stroke:#000;stroke-linecap:round;stroke-linejoin:round;stroke-width:2.95234772108495px"/><path d="M40.06,15H46a1.48,1.48,0,0,1,0,3h-5.9a1.48,1.48,0,0,1,0-3Z" style="fill:none;stroke:#000;stroke-linecap:round;stroke-linejoin:round;stroke-width:1.74218518345255px"/><path d="M43,17.91v5" style="fill:none;stroke:#000;stroke-linecap:round;stroke-linejoin:round;stroke-width:1.74218518345255px"/><path d="M40,14.6l1.25-6.25h3.49L46.35,15" style="fill:none;stroke:#000;stroke-linecap:round;stroke-linejoin:round;stroke-width:1.74218518345255px"/><path d="M40.87,5.8h4.28a1.07,1.07,0,1,1,0,2.14H40.87a1.07,1.07,0,0,1,0-2.14Z" style="fill:none;stroke:#000;stroke-linecap:round;stroke-linejoin:round;stroke-width:1.74218518345255px"/></g></svg>