<svg id="Layer_1" data-name="Layer 1" xmlns="http://www.w3.org/2000/svg" viewBox="0 0 90.99 38.8"><path d="M80.87,11.82a8,8,0,0,1,8,8V30.52a6.6,6.6,0,0,1-6.6,6.6H18.49a8,8,0,0,1-7.95-7" style="fill:none;stroke:#000;stroke-linecap:round;stroke-linejoin:round;stroke-width:2.94px"/><path d="M10.11,4H72.49a8,8,0,0,1,8,8h0V23.49a5.83,5.83,0,0,1-5.83,5.83H10.11a8,8,0,0,1-8-8V12a8,8,0,0,1,8-8Z" style="fill:none;stroke:#000;stroke-linecap:round;stroke-linejoin:round;stroke-width:2.94px"/><path d="M53,28.59V25.86a7.53,7.53,0,0,1,7.53-7.53h0a7.53,7.53,0,0,1,7.54,7.53v2.73" style="fill:none;stroke:#000;stroke-linecap:round;stroke-linejoin:round;stroke-width:3px"/><circle cx="60.53" cy="13.93" r="4.39" style="fill:none;stroke:#000;stroke-linecap:round;stroke-linejoin:round;stroke-width:3px"/><path d="M16.2,28.59V25.86a7.53,7.53,0,0,1,7.53-7.53h0a7.54,7.54,0,0,1,7.54,7.53v2.73" style="fill:none;stroke:#000;stroke-linecap:round;stroke-linejoin:round;stroke-width:3px"/><circle cx="23.73" cy="13.93" r="4.39" style="fill:none;stroke:#000;stroke-linecap:round;stroke-linejoin:round;stroke-width:3px"/><path d="M34.6,28.59V25.86a7.54,7.54,0,0,1,7.54-7.53h0a7.54,7.54,0,0,1,7.54,7.53v2.73" style="fill:none;stroke:#000;stroke-linecap:round;stroke-linejoin:round;stroke-width:3px"/><circle cx="42.14" cy="13.93" r="4.39" style="fill:none;stroke:#000;stroke-linecap:round;stroke-linejoin:round;stroke-width:3px"/><circle cx="78.69" cy="7.68" r="7.21" style="fill:#ff7300"/></svg>