<svg id="Layer_1" data-name="Layer 1" xmlns="http://www.w3.org/2000/svg" viewBox="0 0 93.25 36.84"><path d="M80.87,9.82a8,8,0,0,1,8,8V28.52a6.6,6.6,0,0,1-6.6,6.6H18.49a8,8,0,0,1-7.95-7" style="fill:none;stroke:#000;stroke-linecap:round;stroke-linejoin:round;stroke-width:2.94px"/><path d="M10.11,2H72.49a8,8,0,0,1,8,8h0V21.49a5.83,5.83,0,0,1-5.83,5.83H10.11a8,8,0,0,1-8-8V10a8,8,0,0,1,8-8Z" style="fill:none;stroke:#000;stroke-linecap:round;stroke-linejoin:round;stroke-width:2.94px"/><path d="M53,26.59V23.86a7.53,7.53,0,0,1,7.53-7.53h0a7.53,7.53,0,0,1,7.54,7.53v2.73" style="fill:none;stroke:#000;stroke-linecap:round;stroke-linejoin:round;stroke-width:3px"/><circle cx="60.53" cy="11.93" r="4.39" style="fill:none;stroke:#000;stroke-linecap:round;stroke-linejoin:round;stroke-width:3px"/><path d="M16.2,26.59V23.86a7.53,7.53,0,0,1,7.53-7.53h0a7.54,7.54,0,0,1,7.54,7.53v2.73" style="fill:none;stroke:#000;stroke-linecap:round;stroke-linejoin:round;stroke-width:3px"/><circle cx="23.73" cy="11.93" r="4.39" style="fill:none;stroke:#000;stroke-linecap:round;stroke-linejoin:round;stroke-width:3px"/><path d="M34.6,26.59V23.86a7.54,7.54,0,0,1,7.54-7.53h0a7.54,7.54,0,0,1,7.54,7.53v2.73" style="fill:none;stroke:#000;stroke-linecap:round;stroke-linejoin:round;stroke-width:3px"/><circle cx="42.14" cy="11.93" r="4.39" style="fill:none;stroke:#000;stroke-linecap:round;stroke-linejoin:round;stroke-width:3px"/></svg>