<svg id="Layer_1" data-name="Layer 1" xmlns="http://www.w3.org/2000/svg" viewBox="0 0 64.16 34.19"><rect x="17.8" y="-12.45" width="29.07" height="59.09" rx="14.53" transform="translate(49.43 -15.24) rotate(90)" style="fill:none;stroke:#000;stroke-linecap:round;stroke-linejoin:round;stroke-width:4.199999999999999px"/><path d="M43.36,15.76c0,4.78-2.42,6.68-4.78,6.68s-3.37-.85-3.73-2.29a3.82,3.82,0,0,1-3.8,2.25c-2.71,0-4.76-1.86-4.76-5.2s2-5.21,4.76-5.21a4.1,4.1,0,0,1,3.21,1.28v-1h1.67A1,1,0,0,1,37,13.2v5.07a1.59,1.59,0,0,0,1.61,1.79c.88,0,1.89-1.29,1.89-4.1,0-4.93-3.5-6.74-7.95-6.74-5,0-8.25,2.77-8.25,7.85C24.34,22,27.47,25,32.75,25a12.64,12.64,0,0,0,3.77-.59,1.43,1.43,0,0,1,2,1.14h0a1.22,1.22,0,0,1-.85,1.13,14.9,14.9,0,0,1-4.88.85c-6.76,0-11.44-4-11.44-10.45S26.09,6.66,32.59,6.66C38.56,6.66,43.36,9.87,43.36,15.76ZM33.17,17.18a2.2,2.2,0,1,0-4.39,0,2,2,0,0,0,2.16,2.29A2.06,2.06,0,0,0,33.17,17.18Z"/></svg>