<svg id="Layer_1" data-name="Layer 1" xmlns="http://www.w3.org/2000/svg" viewBox="0 0 129.23 130.97"><path d="M54.28,38.18S56,69.49,93,76.34c0,0,14.42-13.86-3.85-34.54C89.17,41.8,73.7,27.37,54.28,38.18Z" style="fill:#001eff"/><path d="M9.2,121.77h0a27.81,27.81,0,0,1,0-39.34L21,70.66,49.83,41.8a27.82,27.82,0,0,1,39.34,0h0a27.82,27.82,0,0,1,0,39.34L77.61,92.71,48.54,121.77A27.81,27.81,0,0,1,9.2,121.77Z" style="fill:none;stroke:#000;stroke-linecap:round;stroke-linejoin:round;stroke-width:2.0999999999999996px"/><path d="M54.28,38.18s1,31,38.74,38.16" style="fill:none;stroke:#000;stroke-linecap:round;stroke-linejoin:round;stroke-width:2.0999999999999996px"/><line x1="73.65" y1="22.17" x2="81.03" y2="1.05" style="fill:none;stroke:#000;stroke-linecap:round;stroke-linejoin:round;stroke-width:2.0999999999999996px"/><line x1="106.4" y1="51.43" x2="128.18" y2="46.29" style="fill:none;stroke:#000;stroke-linecap:round;stroke-linejoin:round;stroke-width:2.0999999999999996px"/><line x1="93.02" y1="24.27" x2="106.4" y2="6.35" style="fill:none;stroke:#000;stroke-linecap:round;stroke-linejoin:round;stroke-width:2.0999999999999996px"/><line x1="104.17" y1="34.88" x2="122.58" y2="22.17" style="fill:none;stroke:#000;stroke-linecap:round;stroke-linejoin:round;stroke-width:2.0999999999999996px"/></svg>