<svg id="Layer_1" data-name="Layer 1" xmlns="http://www.w3.org/2000/svg" viewBox="0 0 115.2 58.03"><path d="M39.49,56.69V31.43A18.11,18.11,0,0,1,57.6,13.32h0A18.11,18.11,0,0,1,75.71,31.43V56.69Z" style="fill:#ff7300"/><path d="M11.74,50.79V42.36A13.88,13.88,0,0,1,25.61,28.48h0A13.89,13.89,0,0,1,39.49,42.36V56.69l-9,.29-8-1L16,53.82Z" style="fill:#ff7300"/><path d="M103.46,50.79V42.36A13.88,13.88,0,0,0,89.59,28.48h0A13.88,13.88,0,0,0,75.71,42.36V56.69H90.94l7.58-2.81Z" style="fill:#ff7300"/><rect x="29.78" y="-27.68" width="55.64" height="113.1" rx="27.82" transform="translate(86.47 -28.73) rotate(90)" style="fill:none;stroke:#000;stroke-miterlimit:10;stroke-width:2.0999999999999996px"/><path d="M39.49,56.69V31.43A18.11,18.11,0,0,1,57.6,13.32h0A18.11,18.11,0,0,1,75.71,31.43V56.69Z" style="fill:none;stroke:#000;stroke-miterlimit:10;stroke-width:2.0999999999999996px"/><path d="M11.74,50.79V42.36A13.88,13.88,0,0,1,25.61,28.48h0A13.89,13.89,0,0,1,39.49,42.36V56.69l-9,.29-8-1-4.44-1.46a15,15,0,0,1-4-2Z" style="fill:none;stroke:#000;stroke-miterlimit:10;stroke-width:2.0999999999999996px"/><path d="M103.46,50.79V42.36A13.88,13.88,0,0,0,89.59,28.48h0A13.88,13.88,0,0,0,75.71,42.36V56.69H89.17a9.82,9.82,0,0,0,3.43-.62l5.92-2.19Z" style="fill:none;stroke:#000;stroke-miterlimit:10;stroke-width:2.0999999999999996px"/></svg>