<svg width="99" height="122" viewBox="0 0 99 122" fill="none" xmlns="http://www.w3.org/2000/svg">
<g clip-path="url(#clip0_8_144)">
<path d="M96 8.9C96.5765 9.07021 97.0826 9.42205 97.443 9.90316C97.8034 10.3843 97.9988 10.9689 98 11.57V71.83C98.1542 81.7956 95.4472 91.5963 90.2 100.07C86.9311 105.252 82.6078 109.688 77.5114 113.089C72.4151 116.49 66.6598 118.78 60.62 119.81C56.8745 120.509 53.0701 120.844 49.26 120.81C45.4499 120.845 41.6455 120.51 37.9 119.81C31.8563 118.784 26.0966 116.495 20.9965 113.094C15.8963 109.693 11.5702 105.255 8.30002 100.07C3.04716 91.5988 0.339681 81.7964 0.500016 71.83V11.59C0.500722 10.9876 0.695702 10.4014 1.056 9.91865C1.4163 9.43584 1.92271 9.08212 2.50002 8.91C8.00002 7.24 24.94 0.5 49.23 0.5C74 0.5 90.57 7.21 96 8.9Z" fill="#EFD12F" stroke="black" stroke-miterlimit="10"/>
<path d="M49.23 4C63.9728 3.97595 78.6097 6.4893 92.5 11.43L94.5 12.08V71.83C94.6607 81.1224 92.1477 90.2652 87.26 98.17C80.93 108.01 71.75 114.17 59.95 116.38C56.4262 117.05 52.8469 117.385 49.26 117.38C45.6698 117.384 42.0872 117.05 38.56 116.38C26.78 114.14 17.56 108.02 11.27 98.17C6.5 90.82 4 81.71 4 71.83V12.11L6.14 11.41C19.9873 6.54541 34.5531 4.04058 49.23 4V4ZM49.23 0.5C24.94 0.5 8 7.24 2.48 8.91C1.90269 9.08212 1.39628 9.43584 1.03598 9.91865C0.675683 10.4014 0.480703 10.9876 0.479997 11.59V71.83C0.319662 81.7964 3.02714 91.5988 8.28 100.07C11.5469 105.252 15.8684 109.688 20.9631 113.089C26.0578 116.49 31.8116 118.78 37.85 119.81C41.5954 120.51 45.3999 120.845 49.21 120.81C53.0201 120.844 56.8245 120.509 60.57 119.81C66.6098 118.78 72.365 116.49 77.4614 113.089C82.5578 109.688 86.8811 105.252 90.15 100.07C95.4147 91.6016 98.1392 81.8005 98 71.83V11.57C97.9987 10.9689 97.8034 10.3843 97.443 9.90316C97.0826 9.42205 96.5765 9.07021 96 8.9C90.57 7.21 74 0.5 49.23 0.5Z" fill="black"/>
</g>
<defs>
<clipPath id="clip0_8_144">
<rect width="98.47" height="121.33" fill="white"/>
</clipPath>
</defs>
</svg>
