<svg width="158" height="120" viewBox="0 0 158 120" fill="none" xmlns="http://www.w3.org/2000/svg">
<g clip-path="url(#clip0_8_66)">
<path d="M25.2 57.38L1.75 60.06V100.04L25.2 102.27" stroke="black" stroke-width="3.50043" stroke-linecap="round" stroke-linejoin="round"/>
<path d="M132.41 53.66V97.24H25.09V53.66C25.09 39.4285 30.7434 25.7799 40.8066 15.7167C50.8698 5.65345 64.5184 0 78.75 0C92.9815 0 106.63 5.65345 116.693 15.7167C126.757 25.7799 132.41 39.4285 132.41 53.66V53.66Z" fill="#F0F0F0"/>
<path d="M128.91 97.36V116.5H28.6V97.36H128.91ZM132.41 93.85H25.09V120H132.41V93.85Z" fill="black"/>
<path d="M78.75 3.5C92.0492 3.51324 104.8 8.80219 114.204 18.2061C123.608 27.6101 128.897 40.3608 128.91 53.66V93.74H28.6V53.66C28.6132 40.3625 33.9008 27.6133 43.3026 18.2097C52.7044 8.806 65.4525 3.51588 78.75 3.5V3.5ZM78.75 9.32226e-07C64.5184 9.32226e-07 50.8698 5.65345 40.8066 15.7167C30.7434 25.7799 25.09 39.4285 25.09 53.66V97.24H132.41V53.66C132.411 46.6129 131.024 39.6346 128.328 33.1237C125.632 26.6127 121.679 20.6968 116.696 15.7137C111.713 10.7307 105.797 6.77815 99.2863 4.08195C92.7754 1.38575 85.7971 -0.00131272 78.75 9.32226e-07V9.32226e-07Z" fill="black"/>
<path d="M82.8199 12.21C82.8199 12.21 118 15.81 118 64" stroke="black" stroke-width="3.50043" stroke-linecap="round" stroke-linejoin="round"/>
<path d="M118.04 73.06V84.32" stroke="black" stroke-width="3.50043" stroke-linecap="round" stroke-linejoin="round"/>
<path d="M132.41 57.38L155.85 60.06V100.04L132.41 102.27" stroke="black" stroke-width="3.50043" stroke-linecap="round" stroke-linejoin="round"/>
<path d="M37.5199 103.22C36.9123 103.218 36.3178 103.396 35.8116 103.733C35.3055 104.069 34.9104 104.547 34.6765 105.108C34.4426 105.669 34.3804 106.287 34.4977 106.883C34.615 107.479 34.9066 108.027 35.3356 108.457C35.7645 108.888 36.3115 109.181 36.9073 109.3C37.5031 109.42 38.1209 109.359 38.6825 109.127C39.244 108.895 39.7241 108.502 40.0619 107.997C40.3996 107.492 40.5799 106.898 40.5799 106.29C40.5813 105.887 40.5031 105.488 40.3499 105.116C40.1967 104.743 39.9715 104.405 39.6872 104.12C39.403 103.835 39.0652 103.608 38.6933 103.454C38.3214 103.299 37.9226 103.22 37.5199 103.22V103.22Z" fill="black"/>
</g>
<defs>
<clipPath id="clip0_8_66">
<rect width="157.61" height="120" fill="white"/>
</clipPath>
</defs>
</svg>
