<svg width="121" height="121" viewBox="0 0 121 121" fill="none" xmlns="http://www.w3.org/2000/svg">
<g clip-path="url(#clip0_8_107)">
<path d="M120.29 3.27999V91.58C120.291 92.1098 120.14 92.6288 119.855 93.0754C119.569 93.5219 119.162 93.8773 118.681 94.0994C118.2 94.3215 117.665 94.401 117.141 94.3284C116.616 94.2559 116.123 94.0343 115.72 93.69C108.45 87.44 94.72 75.69 90.91 73.43C86.8349 70.8875 82.1692 69.4472 77.37 69.25H20.8C16.23 69.25 0.69 65.25 0.5 47.43C0.69 29.56 16.23 25.61 20.8 25.61H77.37C82.1692 25.4128 86.8349 23.9725 90.91 21.43C94.67 19.12 108.45 7.42999 115.72 1.16999C116.123 0.825689 116.616 0.604112 117.141 0.53154C117.665 0.458968 118.2 0.538446 118.681 0.760547C119.162 0.982649 119.569 1.33806 119.855 1.78461C120.14 2.23117 120.291 2.75015 120.29 3.27999V3.27999Z" fill="#FF7300"/>
<path d="M116.79 4.83002V90C107.54 82.08 96.32 72.66 92.79 70.46C88.1617 67.5771 82.8591 65.9567 77.41 65.76H20.8C17.29 65.76 4.18 62.65 4 47.44C4.18 32.23 17.29 29.12 20.8 29.12H77.37C82.8191 28.9233 88.1217 27.3029 92.75 24.42C96.32 22.22 107.54 12.8 116.75 4.88002L116.79 4.83002ZM117.51 0.500018C116.852 0.501265 116.217 0.739077 115.72 1.17002C108.45 7.42002 94.72 19.17 90.91 21.43C86.8349 23.9725 82.1692 25.4129 77.37 25.61H20.8C16.23 25.61 0.69 29.56 0.5 47.43C0.69 65.3 16.23 69.25 20.8 69.25H77.37C82.1692 69.4472 86.8349 70.8875 90.91 73.43C94.67 75.74 108.45 87.43 115.72 93.69C116.217 94.121 116.852 94.3588 117.51 94.36C117.875 94.3613 118.238 94.2903 118.575 94.1511C118.913 94.0119 119.22 93.8071 119.479 93.5487C119.737 93.2903 119.942 92.9833 120.081 92.6454C120.22 92.3076 120.291 91.9455 120.29 91.58V3.28002C120.291 2.91457 120.22 2.55248 120.081 2.2146C119.942 1.87671 119.737 1.56972 119.479 1.31131C119.22 1.0529 118.913 0.848181 118.575 0.708941C118.238 0.569701 117.875 0.498696 117.51 0.500018V0.500018Z" fill="black"/>
<path d="M28.36 69.25L39.42 119.17H65.92L55.46 69.25" stroke="black" stroke-width="3.5" stroke-linecap="round" stroke-linejoin="round"/>
<path d="M26.97 57.13H57.85" stroke="black" stroke-width="3.5" stroke-linecap="round" stroke-linejoin="round"/>
<path d="M26.97 48.33H57.85" stroke="black" stroke-width="3.5" stroke-linecap="round" stroke-linejoin="round"/>
<path d="M26.97 39.53H57.85" stroke="black" stroke-width="3.5" stroke-linecap="round" stroke-linejoin="round"/>
</g>
<defs>
<clipPath id="clip0_8_107">
<rect width="120.79" height="120.92" fill="white"/>
</clipPath>
</defs>
</svg>
