<svg xmlns="http://www.w3.org/2000/svg" viewBox="0 0 1025.27 512.7"><g id="Layer_2" data-name="Layer 2"><g id="Layer_1-2" data-name="Layer 1"><rect x="23.5" y="23.5" width="978.27" height="465.7" rx="232.85" style="fill:#fff;stroke:#020202;stroke-miterlimit:10;stroke-width:47px"/><path d="M593.72,292.13c0,35-16.87,56.82-63.52,56.82H437.62V155.87H533c39.37,0,54.61,17.66,54.61,49.38,0,21-7.74,34.47-23.44,41.93v1.37C583.41,255.17,593.72,268.4,593.72,292.13ZM466.45,238.07h66.1c21.33,0,27.66-11.32,27.66-26.76,0-16.56-7.27-27-27.66-27h-66.1Zm97.74,52.4c0-16.55-8.67-25.92-30.71-25.92h-67v56h67C558.57,320.54,564.19,307,564.19,290.47Z"/></g></g></svg>