<?xml version="1.0" encoding="utf-8"?>
<!-- Generator: Adobe Illustrator 26.5.0, SVG Export Plug-In . SVG Version: 6.00 Build 0)  -->
<svg version="1.1" id="Layer_1" xmlns="http://www.w3.org/2000/svg" xmlns:xlink="http://www.w3.org/1999/xlink" x="0px" y="0px"
	 viewBox="0 0 80 65" enable-background="new 0 0 80 65" xml:space="preserve">
<g>
	<path d="M72.5,64.5h-65c-3.9,0-7-3.1-7-7v-50c0-3.9,3.1-7,7-7h65c3.9,0,7,3.1,7,7v50C79.5,61.4,76.4,64.5,72.5,64.5z M7.5,4.5
		c-1.7,0-3,1.3-3,3v50c0,1.7,1.3,3,3,3h65c1.7,0,3-1.3,3-3v-50c0-1.7-1.3-3-3-3H7.5z"/>
</g>
</svg>
