<?xml version="1.0" encoding="utf-8"?>
<!-- Generator: Adobe Illustrator 26.5.0, SVG Export Plug-In . SVG Version: 6.00 Build 0)  -->
<svg version="1.1" id="Layer_1" xmlns="http://www.w3.org/2000/svg" xmlns:xlink="http://www.w3.org/1999/xlink" x="0px" y="0px"
	 viewBox="0 0 80 67" enable-background="new 0 0 80 67" xml:space="preserve">
<g>
	<g>
		<path d="M49.5,66.5h-42c-3.9,0-7-3.1-7-7v-52c0-3.9,3.1-7,7-7h42c3.9,0,7,3.1,7,7v21.9h-4V7.5c0-1.7-1.3-3-3-3h-42
			c-1.7,0-3,1.3-3,3v52c0,1.7,1.3,3,3,3h42c1.7,0,3-1.3,3-3V47.9h4v11.6C56.5,63.4,53.4,66.5,49.5,66.5z"/>
	</g>
	<g>
		<g>
			<path d="M43.6,16.1H14.4c-1.1,0-2-0.9-2-2s0.9-2,2-2h29.3c1.1,0,2,0.9,2,2S44.7,16.1,43.6,16.1z"/>
		</g>
		<g>
			<path d="M43.6,29H14.4c-1.1,0-2-0.9-2-2s0.9-2,2-2h29.3c1.1,0,2,0.9,2,2S44.7,29,43.6,29z"/>
		</g>
		<g>
			<path d="M32.6,42H14.4c-1.1,0-2-0.9-2-2s0.9-2,2-2h18.2c1.1,0,2,0.9,2,2S33.7,42,32.6,42z"/>
		</g>
		<g>
			<path d="M32.6,54.9H14.4c-1.1,0-2-0.9-2-2s0.9-2,2-2h18.2c1.1,0,2,0.9,2,2S33.7,54.9,32.6,54.9z"/>
		</g>
	</g>
	<g>
		<path d="M43.6,53.7c-1.1,0-2.1-0.4-2.9-1.2c-0.9-0.9-1.3-2.1-1.2-3.3l0.6-6.9c0.1-1,0.5-1.9,1.2-2.5l23.6-23.6
			c3.3-3.3,8.7-3.3,12.1,0c3.3,3.3,3.3,8.7,0,12.1L53.4,51.8c-0.7,0.7-1.6,1.1-2.5,1.2L44,53.7C43.9,53.7,43.7,53.7,43.6,53.7z
			 M71,17.7c-1.2,0-2.4,0.5-3.2,1.3L44.1,42.6l-0.7,7c0,0,0,0.1,0,0.1s0.1,0,0.1,0l7-0.7l23.6-23.6c0.9-0.9,1.3-2,1.3-3.2
			c0-1.2-0.5-2.4-1.3-3.2C73.3,18.1,72.2,17.7,71,17.7z"/>
	</g>
	<g>
		<path d="M75.6,26.8l-2.4,2.4L64,19.9l2.4-2.4c1.3-1.3,3-1.9,4.6-1.9c1.7,0,3.3,0.6,4.6,1.9C78.1,20.1,78.1,24.3,75.6,26.8z"/>
		<path d="M73.2,31.2c-0.5,0-1-0.2-1.4-0.6l-9.2-9.2C62.2,21,62,20.5,62,19.9c0-0.5,0.2-1,0.6-1.4l2.4-2.4c1.6-1.6,3.8-2.5,6-2.5
			c2.3,0,4.4,0.9,6,2.5c3.3,3.3,3.3,8.7,0,12.1l-2.4,2.4C74.2,31,73.7,31.2,73.2,31.2z M66.8,19.9l6.4,6.4l1-1
			c1.8-1.8,1.8-4.6,0-6.4c-0.9-0.9-2-1.3-3.2-1.3c-1.2,0-2.4,0.5-3.2,1.3L66.8,19.9z"/>
	</g>
</g>
</svg>
