<?xml version="1.0" encoding="UTF-8"?><svg id="Layer_1" xmlns="http://www.w3.org/2000/svg" viewBox="0 0 80 80"><path d="M15.34,78.99h-.33c-1.05,0-2.08-.43-2.83-1.17-.74-.74-1.17-1.77-1.17-2.83V5.01c0-1.07,.42-2.07,1.17-2.83,.75-.75,1.78-1.17,2.83-1.17h49.99c1.05,0,2.08,.43,2.83,1.17,.76,.75,1.17,1.76,1.17,2.83V74.99c0,1.07-.42,2.07-1.17,2.83-.76,.75-1.76,1.17-2.83,1.17s-2.07-.42-2.83-1.17l-22-22-22,22c-.76,.76-1.76,1.17-2.83,1.17Zm-.33-74.99c-.26,0-.52,.11-.71,.29-.19,.19-.29,.44-.29,.71V74.99c0,.26,.11,.52,.29,.71,.19,.19,.44,.29,.71,.29h.33c.27,0,.52-.1,.71-.29l23.06-23.06c.56-.56,1.56-.56,2.12,0l23.06,23.06c.38,.38,1.04,.38,1.41,0,.19-.19,.29-.44,.29-.71V5.01c0-.27-.1-.52-.29-.71-.19-.19-.44-.29-.71-.29H15.01Z"/></svg>