<?xml version="1.0" encoding="UTF-8"?><svg id="Layer_1" xmlns="http://www.w3.org/2000/svg" viewBox="0 0 80 80"><path d="M29.97,69.14H14.06l-.43-.4c-3.92-3.6-7.01-7.87-9.18-12.68-1.16-2.55-2.04-5.25-2.62-8.03-.55-2.59-.83-5.29-.83-8.04v-1.5H22.25c2.96,0,5.36,2.41,5.36,5.37,0,1.43-.56,2.78-1.57,3.79-1.01,1.01-2.36,1.57-3.79,1.57h-2.15c-.63,0-1.22,.25-1.67,.69-.44,.44-.69,1.04-.69,1.67,0,1.3,1.06,2.36,2.36,2.36h9.87c4.19,0,7.6,3.41,7.6,7.6,0,2.03-.79,3.94-2.23,5.37-1.42,1.43-3.33,2.22-5.37,2.22Zm-14.73-3h14.73c1.23,0,2.38-.48,3.24-1.35,.88-.87,1.36-2.02,1.36-3.24,0-2.54-2.06-4.6-4.6-4.6h-9.87c-2.96,0-5.36-2.4-5.36-5.36,0-1.43,.56-2.78,1.57-3.79,1.01-1.01,2.36-1.57,3.79-1.57h2.15c.63,0,1.22-.25,1.67-.69,.45-.45,.69-1.04,.69-1.67,0-1.31-1.06-2.37-2.36-2.37H4.03c.08,2.02,.33,4,.74,5.92,.53,2.57,1.35,5.06,2.42,7.41,1.93,4.27,4.63,8.07,8.06,11.31Z"/><path d="M25.19,27.78H2.89l.8-2.05c2.14-5.46,5.57-10.46,9.93-14.47l.43-.4h11.13c4.67,0,8.46,3.79,8.46,8.46,0,2.26-.88,4.38-2.48,5.98-1.61,1.59-3.73,2.47-5.98,2.47Zm-17.82-3H25.19c1.45,0,2.83-.57,3.86-1.6,1.03-1.03,1.6-2.4,1.6-3.85,0-3.01-2.45-5.46-5.46-5.46H15.23c-3.28,3.12-5.97,6.85-7.87,10.91Z"/><path d="M44.65,78.77v-9.33c0-2.92,2.38-5.31,5.3-5.32,1.29,0,2.32-.83,2.32-1.37,0,0,0-.71,.01-1.42v-1.41c0-4.3,3.84-7.94,8.38-7.94s8.4,3.77,8.4,8.4v5.65l-.4,.43c-3.74,4.05-8.35,7.29-13.37,9.43v.49h-1.22c-2.46,.96-5.04,1.66-7.67,2.1l-1.75,.29Zm16.01-23.79c-2.91,0-5.37,2.27-5.37,4.95,0,0,0,.71-.01,1.42v1.41c0,2.36-2.44,4.36-5.31,4.36-1.28,0-2.32,1.05-2.32,2.32v5.75c1.69-.37,3.34-.85,4.94-1.45l.65-.25c4.8-1.89,9.22-4.87,12.82-8.64v-4.47c0-2.98-2.42-5.4-5.4-5.4Z"/><path d="M40,79C18.49,79,1,61.51,1,40S18.49,1,40,1s39,17.5,39,39-17.5,39-39,39Zm0-75C20.15,4,4,20.15,4,40s16.15,36,36,36,36-16.15,36-36S59.85,4,40,4Z"/><path d="M77.87,49.42h-6.29c-3,0-5.45-2.45-5.45-5.46,0-1.36-1.1-2.46-2.46-2.46h-2.91c-3.56,0-6.45-2.89-6.45-6.44,0-1.71,.67-3.33,1.88-4.55,1.24-1.23,2.86-1.9,4.57-1.9h.71c.66,0,1.27-.25,1.72-.71,.34-.34,.73-.91,.73-1.75,0-1.35-1.1-2.45-2.45-2.45h-7.41c-4.16,0-7.55-3.39-7.55-7.56,0-2.01,.78-3.9,2.2-5.34,1.44-1.43,3.34-2.21,5.35-2.21h9.06l.4,.3c4.44,3.36,8.17,7.71,10.81,12.59,1.41,2.6,2.52,5.37,3.3,8.23,.91,3.34,1.37,6.8,1.37,10.29,0,2.78-.29,5.55-.87,8.24l-.26,1.18Zm-17.11-17.81c-.91,0-1.78,.36-2.45,1.02-.64,.65-1,1.52-1,2.43,0,1.9,1.55,3.44,3.45,3.44h2.91c3.01,0,5.46,2.45,5.46,5.46,0,1.36,1.1,2.46,2.45,2.46h3.85c.38-2.11,.57-4.26,.57-6.42,0-3.22-.43-6.42-1.27-9.5-.72-2.63-1.74-5.19-3.04-7.59-2.35-4.36-5.66-8.27-9.58-11.32h-8.05c-1.21,0-2.35,.47-3.22,1.33-.85,.86-1.33,2-1.33,3.21,0,2.51,2.04,4.56,4.55,4.56h7.41c3,0,5.45,2.44,5.45,5.45,0,1.46-.57,2.83-1.6,3.86-1.02,1.03-2.39,1.6-3.85,1.6h-.71Z"/></svg>