<?xml version="1.0" encoding="utf-8"?>
<!-- Generator: Adobe Illustrator 26.5.0, SVG Export Plug-In . SVG Version: 6.00 Build 0)  -->
<svg version="1.1" id="Layer_1" xmlns="http://www.w3.org/2000/svg" xmlns:xlink="http://www.w3.org/1999/xlink" x="0px" y="0px"
	 viewBox="0 0 80 80" enable-background="new 0 0 80 80" xml:space="preserve">
<g>
	<g>
		<path d="M40,79.5C18.2,79.5,0.5,61.8,0.5,40c0-11.6,5.1-22.6,14-30.1c0.8-0.7,2.1-0.6,2.8,0.2c0.7,0.8,0.6,2.1-0.2,2.8
			C9.1,19.7,4.5,29.6,4.5,40c0,19.6,15.9,35.5,35.5,35.5S75.5,59.6,75.5,40c0-10.4-4.6-20.3-12.5-27.1c-0.8-0.7-0.9-2-0.2-2.8
			c0.7-0.8,2-0.9,2.8-0.2c8.9,7.5,13.9,18.5,13.9,30.1C79.5,61.8,61.8,79.5,40,79.5z"/>
	</g>
	<g>
		<path d="M40,42c-1.1,0-2-0.9-2-2V2.5c0-1.1,0.9-2,2-2s2,0.9,2,2V40C42,41.1,41.1,42,40,42z"/>
	</g>
</g>
</svg>
