<?xml version="1.0" encoding="utf-8"?>
<!-- Generator: Adobe Illustrator 26.5.0, SVG Export Plug-In . SVG Version: 6.00 Build 0)  -->
<svg version="1.1" id="Layer_1" xmlns="http://www.w3.org/2000/svg" xmlns:xlink="http://www.w3.org/1999/xlink" x="0px" y="0px"
	 viewBox="0 0 80 78" enable-background="new 0 0 80 78" xml:space="preserve">
<g>
	<g>
		<path d="M40,45.1c-12.3,0-22.3-10-22.3-22.3c0-12.3,10-22.3,22.3-22.3c12.3,0,22.3,10,22.3,22.3C62.3,35.1,52.3,45.1,40,45.1z
			 M40,4.6c-10,0-18.1,8.1-18.1,18.1c0,10,8.1,18.1,18.1,18.1c10,0,18.1-8.1,18.1-18.1C58.1,12.7,50,4.6,40,4.6z"/>
	</g>
	<g>
		<path d="M77.5,77.6h-75c-1.2,0-2.1-0.9-2.1-2.1C0.4,57.6,9.3,41,23,33.3l2.1,3.7C13.2,43.7,5.3,57.8,4.6,73.4h70.7
			C74.7,57.8,66.8,43.7,54.9,37l2.1-3.7C70.7,41,79.6,57.6,79.6,75.5C79.6,76.6,78.7,77.6,77.5,77.6z"/>
	</g>
</g>
</svg>
