<svg xmlns="http://www.w3.org/2000/svg" viewBox="0 0 57.31 59.71"><g id="Layer_2" data-name="Layer 2"><g id="Layer_1-2" data-name="Layer 1"><path d="M20.67,39.94l3,16.9a1.37,1.37,0,0,0,1.8.8,1.09,1.09,0,0,0,.8-.8l17-38.3a2.12,2.12,0,0,0-1.3-2.7,2,2,0,0,0-1.5,0L2.87,30.94a1.4,1.4,0,0,0-.8,1.8,1.09,1.09,0,0,0,.8.8l15.4,3.9A4,4,0,0,1,20.67,39.94Z" style="fill:none;stroke:#fff;stroke-linecap:round;stroke-linejoin:round;stroke-width:3.9326999187469482px"/><line x1="31.77" y1="27.84" x2="41.47" y2="17.54" style="fill:none;stroke:#fff;stroke-linecap:round;stroke-linejoin:round;stroke-width:3.9326999187469482px"/><circle cx="45.47" cy="11.84" r="8.9" style="fill:#ff7300;stroke:#ff7300;stroke-miterlimit:10;stroke-width:5.879000186920166px"/></g></g></svg>