<svg xmlns="http://www.w3.org/2000/svg" viewBox="0 0 89.74 36.04"><g id="Layer_2" data-name="Layer 2"><g id="Layer_1-2" data-name="Layer 1"><path d="M80.27,9.27a8,8,0,0,1,8,8V28a6.66,6.66,0,0,1-6.6,6.6H17.87a8,8,0,0,1-8-7" style="fill:none;stroke:#fff;stroke-linecap:round;stroke-linejoin:round;stroke-width:2.940000057220459px"/><path d="M9.47,1.47h62.4a8,8,0,0,1,8,8h0V21a5.8,5.8,0,0,1-5.8,5.8H9.47a8,8,0,0,1-8-8V9.47a8,8,0,0,1,8-8Z" style="fill:none;stroke:#fff;stroke-linecap:round;stroke-linejoin:round;stroke-width:2.940000057220459px"/><circle cx="41.97" cy="13.87" r="2" style="fill:#fff"/><circle cx="51.07" cy="13.87" r="2" style="fill:#fff"/><circle cx="60.77" cy="13.87" r="2" style="fill:#fff"/><path d="M32.87,13.87s-3.6,4.4-8,4.4-7.8-4.4-7.8-4.4,3.5-4.4,7.8-4.4S32.87,13.87,32.87,13.87Z" style="fill:none;stroke:#fff;stroke-linecap:round;stroke-linejoin:round;stroke-width:2.4863998889923096px"/><circle cx="26.67" cy="13.87" r="2.6" style="fill:none;stroke:#fff;stroke-linecap:round;stroke-linejoin:round;stroke-width:2.4863998889923096px"/></g></g></svg>