<svg xmlns="http://www.w3.org/2000/svg" viewBox="0 0 89.74 38.07"><g id="Layer_2" data-name="Layer 2"><g id="Layer_1-2" data-name="Layer 1"><path d="M80.27,11.3a8,8,0,0,1,8,8V30a6.66,6.66,0,0,1-6.6,6.6H17.87a8,8,0,0,1-7.9-7" style="fill:none;stroke:#fff;stroke-linecap:round;stroke-linejoin:round;stroke-width:2.940000057220459px"/><path d="M9.47,3.5h62.4a8,8,0,0,1,8,8h0V23a5.8,5.8,0,0,1-5.8,5.8H9.47a8,8,0,0,1-8-8V11.5A8,8,0,0,1,9.47,3.5Z" style="fill:none;stroke:#fff;stroke-linecap:round;stroke-linejoin:round;stroke-width:2.940000057220459px"/><path d="M52.37,28.1V25.4a7.49,7.49,0,0,1,7.5-7.5h0a7.49,7.49,0,0,1,7.5,7.5h0v2.7" style="fill:none;stroke:#fff;stroke-linecap:round;stroke-linejoin:round;stroke-width:3px"/><circle cx="59.87" cy="13.4" r="4.4" style="fill:none;stroke:#fff;stroke-linecap:round;stroke-linejoin:round;stroke-width:3px"/><path d="M15.57,28.1V25.4a7.49,7.49,0,0,1,7.5-7.5h0a7.49,7.49,0,0,1,7.5,7.5v2.7" style="fill:none;stroke:#fff;stroke-linecap:round;stroke-linejoin:round;stroke-width:3px"/><circle cx="23.07" cy="13.4" r="4.4" style="fill:none;stroke:#fff;stroke-linecap:round;stroke-linejoin:round;stroke-width:3px"/><path d="M34,28.1V25.4a7.49,7.49,0,0,1,7.5-7.5h0A7.49,7.49,0,0,1,49,25.4v2.7" style="fill:none;stroke:#fff;stroke-linecap:round;stroke-linejoin:round;stroke-width:3px"/><circle cx="41.47" cy="13.4" r="4.4" style="fill:none;stroke:#fff;stroke-linecap:round;stroke-linejoin:round;stroke-width:3px"/><circle cx="78.07" cy="7.2" r="7.2" style="fill:#ff7300"/></g></g></svg>