<svg xmlns="http://www.w3.org/2000/svg" viewBox="0 0 89.74 36.04"><g id="Layer_2" data-name="Layer 2"><g id="Layer_1-2" data-name="Layer 1"><path d="M80.27,9.27a8,8,0,0,1,8,8V28a6.66,6.66,0,0,1-6.6,6.6H17.87a8,8,0,0,1-7.9-7" style="fill:none;stroke:#fff;stroke-linecap:round;stroke-linejoin:round;stroke-width:2.940000057220459px"/><path d="M9.47,1.47h62.4a8,8,0,0,1,8,8h0V21a5.8,5.8,0,0,1-5.8,5.8H9.47a8,8,0,0,1-8-8V9.47A8,8,0,0,1,9.47,1.47Z" style="fill:none;stroke:#fff;stroke-linecap:round;stroke-linejoin:round;stroke-width:2.940000057220459px"/><path d="M52.37,26.07v-2.7a7.49,7.49,0,0,1,7.5-7.5h0a7.49,7.49,0,0,1,7.5,7.5h0v2.7" style="fill:none;stroke:#fff;stroke-linecap:round;stroke-linejoin:round;stroke-width:3px"/><circle cx="59.87" cy="11.37" r="4.4" style="fill:none;stroke:#fff;stroke-linecap:round;stroke-linejoin:round;stroke-width:3px"/><path d="M15.57,26.07v-2.7a7.49,7.49,0,0,1,7.5-7.5h0a7.49,7.49,0,0,1,7.5,7.5v2.7" style="fill:none;stroke:#fff;stroke-linecap:round;stroke-linejoin:round;stroke-width:3px"/><circle cx="23.07" cy="11.37" r="4.4" style="fill:none;stroke:#fff;stroke-linecap:round;stroke-linejoin:round;stroke-width:3px"/><path d="M34,26.07v-2.7a7.49,7.49,0,0,1,7.5-7.5h0a7.49,7.49,0,0,1,7.5,7.5v2.7" style="fill:none;stroke:#fff;stroke-linecap:round;stroke-linejoin:round;stroke-width:3px"/><circle cx="41.47" cy="11.37" r="4.4" style="fill:none;stroke:#fff;stroke-linecap:round;stroke-linejoin:round;stroke-width:3px"/></g></g></svg>