<svg xmlns="http://www.w3.org/2000/svg" viewBox="0 0 89.74 36.04"><g id="Layer_2" data-name="Layer 2"><g id="Layer_1-2" data-name="Layer 1"><path d="M80.27,9.27a8,8,0,0,1,8,8V28a6.66,6.66,0,0,1-6.6,6.6H17.87a8,8,0,0,1-8-7" style="fill:none;stroke:#fff;stroke-linecap:round;stroke-linejoin:round;stroke-width:2.940000057220459px"/><path d="M9.47,1.47h62.4a8,8,0,0,1,8,8h0v11.4a5.8,5.8,0,0,1-5.8,5.8H9.47a8,8,0,0,1-8-8V9.47A8,8,0,0,1,9.47,1.47Z" style="fill:none;stroke:#fff;stroke-linecap:round;stroke-linejoin:round;stroke-width:2.940000057220459px"/><path d="M15.07,26v-2.7a7.49,7.49,0,0,1,7.5-7.5h0a7.49,7.49,0,0,1,7.5,7.5h0V26" style="fill:none;stroke:#fff;stroke-linecap:round;stroke-linejoin:round;stroke-width:3px"/><circle cx="22.57" cy="11.37" r="4.4" style="fill:none;stroke:#fff;stroke-linecap:round;stroke-linejoin:round;stroke-width:3px"/><path d="M53.07,26v-2.7a7.49,7.49,0,0,1,7.5-7.5h0a7.49,7.49,0,0,1,7.5,7.5V26" style="fill:none;stroke:#fff;stroke-linecap:round;stroke-linejoin:round;stroke-width:3px"/><circle cx="60.57" cy="11.37" r="4.4" style="fill:none;stroke:#fff;stroke-linecap:round;stroke-linejoin:round;stroke-width:3px"/><circle cx="34.07" cy="14.07" r="1.6" style="fill:#fff"/><circle cx="41.27" cy="14.07" r="1.6" style="fill:#fff"/><circle cx="48.97" cy="14.07" r="1.6" style="fill:#fff"/></g></g></svg>