<svg xmlns="http://www.w3.org/2000/svg" viewBox="0 0 1025.3 512.8"><g id="Layer_2" data-name="Layer 2"><g id="Layer_1-2" data-name="Layer 1"><path d="M256.4,23.5H769c128.6,0,232.8,104.3,232.8,232.9h0c0,128.6-104.3,232.9-232.8,232.9H256.4C127.8,489.3,23.5,385,23.5,256.4h0C23.5,127.8,127.8,23.5,256.4,23.5Z" style="fill:#ff005c;stroke:#fff;stroke-miterlimit:10;stroke-width:47px"/><path d="M555.4,256.9c26.8,26.6,52.3,51.6,77.3,77,12.8,13,14.2,28.9,4.9,41.5-8,10.9-24.1,15.2-36.6,8.5-6.3-3.4-11.8-8.7-17-13.9-23.2-23.3-46-46.8-71.7-72.9-17.1,17.7-32.6,33.9-48.2,50-9.1,9.3-18.2,18.6-27.7,27.6-15.8,15.1-34.2,16.3-46.5,3.3-12-12.6-10.9-30.3,4-45.2,24.8-24.9,50-49.2,76.4-75.1-8.6-9.1-15.7-16.8-23.1-24.3C430,216,412.6,199,395.5,181.6c-16.3-16.6-18.2-35-5-47.8s31-10.8,47.8,5.7c20.6,20.2,41,40.8,61.5,61.1,3.9,3.9,8.1,7.6,14.5,13.5,20.3-21,39.9-41.3,59.5-61.5,4.7-4.9,9.5-9.8,14.4-14.4,15.8-15,34.4-16.7,46.7-4.3,12.5,12.5,11.1,31.4-4,46.8-20.7,21-41.7,41.6-62.5,62.5C564.3,247.1,560.7,251.3,555.4,256.9Z" style="fill:#fff"/></g></g></svg>