<svg xmlns="http://www.w3.org/2000/svg" xmlns:xlink="http://www.w3.org/1999/xlink" viewBox="0 0 63.3 34.38"><defs><clipPath id="clip-path"><path d="M63.3,15.6h0A15.62,15.62,0,0,1,47.7,31.2H15.6A15.62,15.62,0,0,1,0,15.6H0A15.62,15.62,0,0,1,15.6,0H47.8A15.53,15.53,0,0,1,63.3,15.6Z" style="fill:none"/></clipPath></defs><g id="Layer_2" data-name="Layer 2"><g id="Layer_1-2" data-name="Layer 1"><path d="M63.3,15.6h0A15.62,15.62,0,0,1,47.7,31.2H15.6A15.62,15.62,0,0,1,0,15.6H0A15.62,15.62,0,0,1,15.6,0H47.8A15.53,15.53,0,0,1,63.3,15.6Z"/><g style="clip-path:url(#clip-path)"><path d="M32.3,7.1l9.9,8.4a1.58,1.58,0,0,1,.2,2.2l-2.3,2.8a1.58,1.58,0,0,1-2.2.2L28,12.3a1.58,1.58,0,0,1-.2-2.2l2.3-2.8A1.69,1.69,0,0,1,32.3,7.1Z" style="fill:none;stroke:#fff;stroke-linecap:round;stroke-linejoin:round;stroke-width:2.567699909210205px"/><polyline points="41.6 19.4 43.4 20.9 38.5 26.7 29.7 19.3 25.9 23.8" style="fill:none;stroke:#fff;stroke-linecap:round;stroke-linejoin:round;stroke-width:2.567699909210205px"/><polyline points="17.8 32.3 24.7 22.9 27.5 24.9 21.6 33.1" style="fill:none;stroke:#fff;stroke-linecap:round;stroke-linejoin:round;stroke-width:2.567699909210205px"/></g></g></g></svg>