<svg xmlns="http://www.w3.org/2000/svg" xmlns:xlink="http://www.w3.org/1999/xlink" viewBox="0 0 27.64 43.64"><defs><clipPath id="clip-path" transform="translate(-0.23 -0.33)"><path d="M14,0h0c7.7,0,14,5.8,14,13.1v18c0,7.2-6.3,13-14,13h0c-7.7,0-14-5.8-14-13v-18C0,5.9,6.3,0,14,0Z" style="fill:none"/></clipPath></defs><g id="Layer_2" data-name="Layer 2"><g id="Layer_1-2" data-name="Layer 1"><path d="M13,2.6h2.1A10.5,10.5,0,0,1,25.6,13.1V31.2A10.5,10.5,0,0,1,15.1,41.7H13A10.5,10.5,0,0,1,2.5,31.2V13.1A10.5,10.5,0,0,1,13,2.6Z" transform="translate(-0.23 -0.33)" style="fill:#fff;stroke:#fff;stroke-miterlimit:10;stroke-width:4.539000034332275px"/><g style="clip-path:url(#clip-path)"><line x1="21.97" y1="2.37" x2="10.67" y2="18.77" style="fill:none;stroke:#fff;stroke-linecap:round;stroke-miterlimit:10;stroke-width:4.0991997718811035px"/><line x1="13.77" y1="29.77" x2="5.67" y2="41.47" style="fill:none;stroke:#fff;stroke-linecap:round;stroke-miterlimit:10;stroke-width:4.0991997718811035px"/></g><g style="clip-path:url(#clip-path)"><line x1="21.97" y1="2.37" x2="10.67" y2="18.77" style="fill:none;stroke:#000;stroke-linecap:round;stroke-miterlimit:10;stroke-width:4.0991997718811035px"/><line x1="13.77" y1="29.77" x2="5.67" y2="41.47" style="fill:none;stroke:#000;stroke-linecap:round;stroke-miterlimit:10;stroke-width:4.0991997718811035px"/></g></g></g></svg>