<svg xmlns="http://www.w3.org/2000/svg" viewBox="0 0 92.6 34.9"><g id="Layer_2" data-name="Layer 2"><g id="Layer_1-2" data-name="Layer 1"><path d="M86.9,7.9a9.86,9.86,0,0,1,.3,2.4V22.8a6.36,6.36,0,0,1-6.3,6.4H10.3a8.15,8.15,0,0,1-3.1-.6,8.91,8.91,0,0,0,8.5,6.3h68A8.92,8.92,0,0,0,92.6,26V16.1A8.87,8.87,0,0,0,86.9,7.9Z" style="fill:#ff7300"/><path d="M10.3,1.5H78.5a8.81,8.81,0,0,1,8.8,8.8h0V22.8A6.36,6.36,0,0,1,81,29.2H10.3a8.81,8.81,0,0,1-8.8-8.8h0V10.3a8.94,8.94,0,0,1,8.8-8.8Z" style="fill:#fff;stroke:#fff;stroke-linecap:round;stroke-linejoin:round;stroke-width:3px"/><line x1="67.1" y1="10.7" x2="67.1" y2="19.7" style="fill:none;stroke:#000;stroke-linecap:round;stroke-linejoin:round;stroke-width:3px"/><line x1="71.6" y1="15.1" x2="62.6" y2="15.1" style="fill:none;stroke:#000;stroke-linecap:round;stroke-linejoin:round;stroke-width:3px"/><path d="M22.5,16h2.2a4.21,4.21,0,0,1-4.4,3.9c-2.1,0-4.4-1.2-4.4-4.7s2.3-4.7,4.4-4.7a4.21,4.21,0,0,1,4.4,3.9H22.5a2.2,2.2,0,0,0-2.2-2.1c-1.5,0-2.3,1.1-2.3,2.9s.8,2.9,2.3,2.9A2.35,2.35,0,0,0,22.5,16Z"/><path d="M32.1,18H28.3l-.6,1.6H25.5l3.4-9h2.5l3.4,9H32.7Zm-.6-1.8-1.3-3.6L29,16.2Z"/><path d="M41.1,16.5H38.7v3.1H36.5v-9h4.7c2.1,0,3.2,1.1,3.2,2.9a1.73,1.73,0,0,1-1.5,2,1.59,1.59,0,0,1,1.4,1.8,16.2,16.2,0,0,0,.1,2.2H42.2a12.1,12.1,0,0,1-.1-1.9,1.1,1.1,0,0,0-.8-1.2C41.2,16.5,41.2,16.5,41.1,16.5Zm-2.4-1.8h2.5a1,1,0,0,0,1.1-.9v-.2a1,1,0,0,0-.9-1.1H38.7Z"/><path d="M54.2,15.2c0,3.8-2.4,4.5-4.7,4.5H46.1v-9h3.4C51.8,10.7,54.2,11.4,54.2,15.2Zm-2.2,0c0-2.3-1.2-2.7-2.7-2.7H48.2v5.3h1.1C50.9,17.8,52,17.5,52,15.2Z"/></g></g></svg>