<svg xmlns="http://www.w3.org/2000/svg" viewBox="0 0 89.74 36.04"><g id="Layer_2" data-name="Layer 2"><g id="Layer_1-2" data-name="Layer 1"><path d="M80.27,9.27a8,8,0,0,1,8,8V28a6.66,6.66,0,0,1-6.6,6.6H17.87a8,8,0,0,1-7.9-6.8" style="fill:none;stroke:#fff;stroke-linecap:round;stroke-linejoin:round;stroke-width:2.9423000812530518px"/><path d="M9.47,1.47h62.4a8,8,0,0,1,8,8V21a5.8,5.8,0,0,1-5.8,5.8H9.47a8,8,0,0,1-8-8V9.47A8,8,0,0,1,9.47,1.47Z" style="fill:none;stroke:#fff;stroke-linecap:round;stroke-linejoin:round;stroke-width:2.9423000812530518px"/><polyline points="25.77 14.87 29.47 12.07 33.27 14.87" style="fill:none;stroke:#fff;stroke-linecap:round;stroke-linejoin:round;stroke-width:2.9423000812530518px"/><line x1="29.47" y1="13.47" x2="29.47" y2="20.17" style="fill:none;stroke:#fff;stroke-linecap:round;stroke-linejoin:round;stroke-width:2.9423000812530518px"/><polyline points="36.17 10.87 39.87 8.07 43.67 10.87" style="fill:none;stroke:#fff;stroke-linecap:round;stroke-linejoin:round;stroke-width:2.9423000812530518px"/><line x1="39.87" y1="9.47" x2="39.87" y2="16.07" style="fill:none;stroke:#fff;stroke-linecap:round;stroke-linejoin:round;stroke-width:2.9423000812530518px"/><polyline points="47.07 14.67 50.77 11.87 54.57 14.67" style="fill:none;stroke:#fff;stroke-linecap:round;stroke-linejoin:round;stroke-width:2.9423000812530518px"/><line x1="50.77" y1="13.27" x2="50.77" y2="19.97" style="fill:none;stroke:#fff;stroke-linecap:round;stroke-linejoin:round;stroke-width:2.9423000812530518px"/></g></g></svg>