<svg xmlns="http://www.w3.org/2000/svg" viewBox="0 0 41.43 49.84">
    <g id="Layer_2" data-name="Layer 2">
        <g id="Layer_1-2" data-name="Layer 1">
            <path
                d="M26.74,2.42h0A16.79,16.79,0,0,1,39,22.52l-4.7,19.6h0l-32.4-7.8h0l4.7-19.6a16.63,16.63,0,0,1,20.1-12.3Z"
                style="fill:#fff;stroke:#fff;stroke-linecap:round;stroke-linejoin:round;stroke-width:3.878999948501587px" />
            <path
                d="M20.74,27.42h0a6.25,6.25,0,0,1,4.6,7.6l-2,8.1a6.25,6.25,0,0,1-7.6,4.6h0a6.25,6.25,0,0,1-4.6-7.6l2-8.1A6.33,6.33,0,0,1,20.74,27.42Z"
                style="fill:#fff;stroke:#fff;stroke-linecap:round;stroke-linejoin:round;stroke-width:3.878999948501587px" />
        </g>
    </g>
</svg>