<?xml version="1.0" encoding="utf-8"?>
<!-- Generator: Adobe Illustrator 26.5.0, SVG Export Plug-In . SVG Version: 6.00 Build 0)  -->
<svg version="1.1" id="Layer_1" xmlns="http://www.w3.org/2000/svg" xmlns:xlink="http://www.w3.org/1999/xlink" x="0px" y="0px"
	 viewBox="0 0 25 25" enable-background="new 0 0 25 25" xml:space="preserve">
<g>
	<circle fill="#B299FF" cx="12.5" cy="12.5" r="11"/>
	<path fill="#8673BF" d="M12.5,2C18.3,2,23,6.7,23,12.5S18.3,23,12.5,23S2,18.3,2,12.5S6.7,2,12.5,2 M12.5,1C6.1,1,1,6.1,1,12.5
		C1,18.9,6.1,24,12.5,24S24,18.9,24,12.5C24,6.1,18.9,1,12.5,1L12.5,1z"/>
</g>
<g>
	<g>
		<path fill="#8673BF" d="M16.8,17.5c-0.1,0-0.2,0-0.3-0.1c-1.5-1.2-3.1-1.4-4-1.4c-1.9,0-3.3,0.9-4,1.4c-0.2,0.2-0.5,0.1-0.7-0.1
			c-0.2-0.2-0.1-0.5,0.1-0.7C8.7,16,10.3,15,12.5,15c1,0,2.8,0.2,4.6,1.6c0.2,0.2,0.2,0.5,0.1,0.7C17.1,17.4,16.9,17.5,16.8,17.5z"
			/>
	</g>
	<g>
		<ellipse fill="#8673BF" cx="16.7" cy="9.3" rx="1.6" ry="1.8"/>
		<ellipse fill="#8673BF" cx="8.3" cy="9.3" rx="1.6" ry="1.8"/>
	</g>
</g>
</svg>
